<?xml version="1.0" encoding="UTF-8" standalone="no"?>
<!-- Created with Inkscape (http://www.inkscape.org/) -->

<svg
   xmlns:dc="http://purl.org/dc/elements/1.1/"
   xmlns:cc="http://creativecommons.org/ns#"
   xmlns:rdf="http://www.w3.org/1999/02/22-rdf-syntax-ns#"
   xmlns:svg="http://www.w3.org/2000/svg"
   xmlns="http://www.w3.org/2000/svg"
   xmlns:xlink="http://www.w3.org/1999/xlink"
   xmlns:sodipodi="http://sodipodi.sourceforge.net/DTD/sodipodi-0.dtd"
   xmlns:inkscape="http://www.inkscape.org/namespaces/inkscape"
   width="86"
   height="86"
   id="svg2"
   version="1.1"
   inkscape:version="0.48.4 r9939"
   sodipodi:docname="webcat.svg"
   inkscape:export-filename="/home/z/programy/webcat/harbour-webcat.png"
   inkscape:export-xdpi="90"
   inkscape:export-ydpi="90">
  <defs
     id="defs4">
    <linearGradient
       id="linearGradient6585">
      <stop
         style="stop-color:#ffffff;stop-opacity:1;"
         offset="0"
         id="stop6587" />
      <stop
         style="stop-color:#ffffff;stop-opacity:0;"
         offset="1"
         id="stop6589" />
    </linearGradient>
    <linearGradient
       id="linearGradient6557">
      <stop
         id="stop6559"
         offset="0"
         style="stop-color:#47b1fd;stop-opacity:1;" />
      <stop
         id="stop6561"
         offset="1"
         style="stop-color:#47b1fd;stop-opacity:0;" />
    </linearGradient>
    <linearGradient
       id="linearGradient6520">
      <stop
         style="stop-color:#00ffec;stop-opacity:1;"
         offset="0"
         id="stop6522" />
      <stop
         style="stop-color:#00dfff;stop-opacity:0;"
         offset="1"
         id="stop6524" />
    </linearGradient>
    <linearGradient
       id="linearGradient3769">
      <stop
         style="stop-color:#47b1fd;stop-opacity:1;"
         offset="0"
         id="stop3771" />
      <stop
         style="stop-color:#000000;stop-opacity:1;"
         offset="1"
         id="stop3773" />
    </linearGradient>
    <linearGradient
       id="linearGradient3789-6">
      <stop
         style="stop-color:#fac205;stop-opacity:1;"
         offset="0"
         id="stop3791-0" />
      <stop
         style="stop-color:#f45100;stop-opacity:1;"
         offset="1"
         id="stop3793-4" />
    </linearGradient>
    <linearGradient
       inkscape:collect="always"
       xlink:href="#linearGradient3789-6"
       id="linearGradient3925"
       gradientUnits="userSpaceOnUse"
       spreadMethod="pad"
       x1="84.767441"
       y1="6.2790699"
       x2="6.2790699"
       y2="84.767441"
       gradientTransform="matrix(-0.95555556,0,0,0.95555556,-5,-66)" />
    <linearGradient
       inkscape:collect="always"
       xlink:href="#linearGradient3769"
       id="linearGradient3775"
       x1="-50"
       y1="21"
       x2="-50"
       y2="66"
       gradientUnits="userSpaceOnUse" />
    <linearGradient
       inkscape:collect="always"
       xlink:href="#linearGradient3769"
       id="linearGradient3780"
       gradientUnits="userSpaceOnUse"
       x1="-46"
       y1="21"
       x2="-46"
       y2="81" />
    <filter
       id="filter3892"
       inkscape:label="Drop shadow"
       width="1.5"
       height="1.5"
       x="-.25"
       y="-.25">
      <feGaussianBlur
         id="feGaussianBlur3894"
         in="SourceAlpha"
         stdDeviation="2"
         result="blur" />
      <feColorMatrix
         id="feColorMatrix3896"
         result="bluralpha"
         type="matrix"
         values="1 0 0 0 0 0 1 0 0 0 0 0 1 0 0 0 0 0 0.4 0 " />
      <feOffset
         id="feOffset3898"
         in="bluralpha"
         dx="-2.77556e-017"
         dy="-2.77556e-017"
         result="offsetBlur" />
      <feMerge
         id="feMerge3900">
        <feMergeNode
           id="feMergeNode3902"
           in="offsetBlur" />
        <feMergeNode
           id="feMergeNode3904"
           in="SourceGraphic" />
      </feMerge>
    </filter>
    <linearGradient
       y2="80"
       x2="45"
       y1="10"
       x1="45"
       spreadMethod="pad"
       gradientTransform="matrix(0.95555556,0,0,0.95555556,-196,2)"
       gradientUnits="userSpaceOnUse"
       id="linearGradient3007"
       xlink:href="#linearGradient3789-6"
       inkscape:collect="always" />
    <linearGradient
       y2="90"
       x2="1.0465117"
       y1="1.0465117"
       x1="90"
       spreadMethod="reflect"
       gradientTransform="matrix(-0.95555556,0,0,0.95555556,86,4)"
       gradientUnits="userSpaceOnUse"
       id="linearGradient3008-3"
       xlink:href="#linearGradient3789-6-3"
       inkscape:collect="always" />
    <linearGradient
       id="linearGradient3789-6-3">
      <stop
         style="stop-color:#05fa8f;stop-opacity:1;"
         offset="0"
         id="stop3791-0-5" />
      <stop
         style="stop-color:#063569;stop-opacity:1;"
         offset="1"
         id="stop3793-4-2" />
    </linearGradient>
    <linearGradient
       inkscape:collect="always"
       xlink:href="#linearGradient3769"
       id="linearGradient6547"
       x1="8.75"
       y1="13"
       x2="60.090099"
       y2="47.998215"
       gradientUnits="userSpaceOnUse" />
    <linearGradient
       inkscape:collect="always"
       xlink:href="#linearGradient6557"
       id="linearGradient6555"
       x1="550"
       y1="900"
       x2="1250"
       y2="900"
       gradientUnits="userSpaceOnUse"
       spreadMethod="pad" />
  </defs>
  <sodipodi:namedview
     id="base"
     pagecolor="#ffffff"
     bordercolor="#666666"
     borderopacity="1.0"
     inkscape:pageopacity="0.0"
     inkscape:pageshadow="2"
     inkscape:zoom="2"
     inkscape:cx="113.63562"
     inkscape:cy="76.83014"
     inkscape:document-units="px"
     inkscape:current-layer="layer2"
     showgrid="true"
     inkscape:window-width="1366"
     inkscape:window-height="721"
     inkscape:window-x="0"
     inkscape:window-y="0"
     inkscape:window-maximized="1"
     inkscape:snap-bbox="true"
     inkscape:snap-global="true"
     inkscape:snap-to-guides="false"
     inkscape:snap-grids="false">
    <inkscape:grid
       type="xygrid"
       id="grid2985"
       empspacing="5"
       visible="false"
       enabled="true"
       snapvisiblegridlinesonly="true" />
  </sodipodi:namedview>
  <metadata
     id="metadata7">
    <rdf:RDF>
      <cc:Work
         rdf:about="">
        <dc:format>image/svg+xml</dc:format>
        <dc:type
           rdf:resource="http://purl.org/dc/dcmitype/StillImage" />
        <dc:title></dc:title>
      </cc:Work>
    </rdf:RDF>
  </metadata>
  <g
     inkscape:groupmode="layer"
     id="layer2"
     inkscape:label="Ebene"
     style="display:inline"
     transform="translate(0,-4)">
    <path
       style="fill:url(#linearGradient6547);fill-opacity:1;stroke:none;display:inline"
       d="m 43,4 c 23.74824,0 43,19.251756 43,43 l 0,40.790278 C 86,89.01865 85.01865,90 83.79028,90 L 43,90 C 42.257868,90 41.523178,89.97743 40.790278,89.94028 18.070374,88.788603 0,70.006112 0,47 L 0,6.209722 C 0,4.98135 0.98135,4 2.209722,4 L 43,4 z"
       id="rect3059-1"
       inkscape:connector-curvature="0" />
    <g
       id="layer8"
       transform="matrix(0.11481381,0,0,0.11481381,-60.320369,-56.34257)"
       style="fill:url(#linearGradient6555);fill-opacity:1.0">
      <radialGradient
         id="path125302_1_"
         cx="6611.7559"
         cy="-7278.2686"
         r="17925.004"
         gradientTransform="matrix(0.0195,0,0,-0.0195,770.9,757.886)"
         gradientUnits="userSpaceOnUse"
         style="fill-opacity:1.0;fill:url(#linearGradient6555)">
        <stop
           offset="0"
           style="stop-color:#0101FF;fill-opacity:1.0;fill:url(#linearGradient6555)"
           id="stop3810" />
        <stop
           offset="1"
           style="stop-color:#000080;fill-opacity:1.0;fill:url(#linearGradient6555)"
           id="stop3812" />
      </radialGradient>
      <path
         style="fill:#47b1fd;fill-opacity:1"
         inkscape:connector-curvature="0"
         id="path125302"
         d="m 1250,900 c 0,193.3 -156.701,350 -350,350 -193.3,0 -350,-156.7 -350,-350 0,-193.3 156.7,-350 350,-350 193.299,0 350,156.7 350,350 l 0,0 z" />
    </g>
    <g
       id="layer1"
       transform="matrix(0.1073428,0,0,0.1073428,-53.396306,-48.828805)"
       style="fill:#000000;fill-opacity:1">
      <path
         style="fill:#000000;fill-opacity:1"
         inkscape:connector-curvature="0"
         id="polygon0"
         d="m 811.96593,555.66793 10.50562,-2.38677 4.92,-2.55154 6.27816,-1.46588 -0.8724,-1.16752 -3.81496,-0.14541 0.58163,-0.96396 5.81933,-0.8595 2.61726,0.58054 1.04689,-1.16645 9.99294,-2.39322 1.47988,-1.65652 8.2815,2.39861 6.50757,-0.8078 6.64007,-1.75991 8.70047,1.08999 -2.25536,0.84118 3.7837,0.62361 2.46538,-0.25634 3.06854,-2.10241 0.1034,1.7082 -1.21706,-0.88103 -1.61236,1.2537 5.33574,-0.50837 -5.13971,0.60855 11.92302,0.77116 -0.83796,-0.72809 4.32009,-0.8358 -2.1595,0.0571 1.81808,-0.82719 -1.66083,-1.24614 4.16606,0.3748 0.63438,-1.11151 3.68892,1.39155 4.69598,-0.24664 1.73944,1.45079 4.7132,-2.60647 4.11652,3.87848 -2.63232,0.005 1.81267,1.01458 -2.10994,0.0829 0.55468,1.51435 4.61841,0.81424 2.46324,1.91072 4.57317,-1.77069 5.27544,1.43679 1.97749,1.25046 -1.53158,0.50299 5.03739,1.87624 5.0374,0.003 -1.12337,2.0841 1.73945,-0.36405 0.1077,1.19878 2.5914,0.78087 1.58113,-0.50515 -2.20583,-0.76039 9.15285,1.93115 2.90912,-0.24986 -5.50484,0.66238 -15.01741,-0.24558 -0.0161,2.08842 -0.89396,-1.32909 -1.36894,0.57515 1.18369,3.59307 6.81239,1.68344 -2.72712,0.41574 3.52952,2.18858 -3.63829,-0.51806 1.27954,1.95162 5.62547,0.18849 2.77234,-1.14814 2.56664,1.47125 0.69577,-1.48203 0.31343,1.08568 5.51668,1.38294 -1.77606,0.20034 3.2258,2.03779 1.52939,-0.0301 -1.58645,-0.89612 11.39742,4.63135 2.67966,-0.63006 -0.15719,1.25261 3.77931,-2.29414 8.37524,6.39664 5.77084,-1.0329 1.11483,-3.57367 9.99504,-0.98981 -0.8745,1.65436 -4.6163,-0.12926 3.0815,0.78734 -7.54698,-0.82179 2.01191,2.0281 -0.57296,3.69646 1.91183,1.05443 1.6198,-0.7227 1.5445,2.38353 2.9986,-3.2721 0.9111,2.95328 -8.289,1.82562 3.4886,-0.33712 6.2103,2.37815 3.4573,-1.63282 8.6091,0.91334 -2.6841,-2.97913 0.1767,-2.29845 2.9015,-0.72809 3.5057,1.00704 -0.054,-1.82345 0.4071,2.37922 -6.0153,0.60745 3.0739,2.65926 5.8108,0.0905 11.0409,4.64641 0.4555,4.49134 -4.0325,-4.28561 -10.3355,-3.3992 -1.9687,1.38403 -11.1638,-0.74749 -2.6173,1.19877 -7.9378,-1.31077 -0.2865,1.45079 1.2353,2.59787 8.7554,1.60589 3.8742,2.27043 9.1734,0.74425 -0.7627,-1.81268 2.5806,-1.3431 5.478,1.94302 -4.0562,3.31949 -0.033,-0.90365 -1.8289,7.03426 2.0927,1.25908 4.137,-0.68286 1.0986,1.97532 2.3566,0.71732 -3.6674,0.37483 3.3756,3.16223 0.4663,2.97484 2.5516,1.40123 0,2.48587 -3.8095,-1.59621 -1.2506,-1.72651 0.2348,1.07705 4.2286,3.44981 -1.6555,-0.29188 4.0971,6.89531 1.9301,-0.14538 0.054,2.05394 4.124,1.87839 0.236,2.72496 -3.8947,0.41573 -1.9947,-3.68353 -1.9592,-0.4416 -4.0336,3.85588 2.6981,-0.53101 13.8833,5.62334 -3.9355,1.81483 2.6107,3.87203 2.5914,3.19563 5.9647,1.31723 -2.7733,2.77019 1.0748,1.42603 -1.3237,-1.41418 -2.7056,1.73729 2.3383,1.87086 3.3981,-1.40126 2.558,2.66357 -6.0132,2.44169 -5.3583,-1.79546 -2.3825,-2.55585 -3.6038,1.91286 -0.3964,-1.7147 -5.6103,0.65702 10.7921,-8.67354 -5.0266,-6.46666 -6.8695,-0.0839 -8.8934,3.75031 -1.3721,2.36845 2.0906,1.99793 -2.7389,-2.19611 -0.9802,1.87945 -1.9732,-0.90688 0.8499,-1.36463 -2.0282,0.78948 1.6576,2.30276 -2.6075,0.34681 0.6667,1.80731 -3.7342,-0.36189 1.8774,-1.86763 -1.2871,-2.13688 -4.3762,1.23323 1.7449,2.89191 -2.5667,-2.61725 -1.6435,0.63761 3.3583,2.86067 0.072,1.12983 -3.3227,-2.20798 3.7589,4.92755 -3.8708,-3.67815 -1.8117,1.20738 4.5107,4.95339 -3.8397,1.21492 3.788,1.40233 -2.4481,0.13356 2.4901,4.43963 -3.3507,-3.1224 2.2811,2.92098 -2.0366,-1.58974 0.094,1.69638 2.8908,0.77547 -3.0038,0.83041 3.566,3.68353 -0.7722,2.24998 2.3749,-1.52081 -1.9354,2.27045 3.1579,1.96132 -2.9846,-1.15354 0.029,1.7793 1.5962,-0.13355 -1.2785,1.45296 2.9663,-0.13357 -0.7088,3.4132 2.5194,-0.87026 -2.2274,3.29149 1.5187,-0.0118 1.4831,3.99373 1.1116,-2.20797 -1.1462,3.14178 2.012,0.34357 -1.3172,0.31665 2.3243,4.01204 1.0619,-1.73189 -0.7937,4.30069 1.1448,-1.6059 -0.084,2.33506 1.9463,0.40929 -0.503,1.54019 -1.8354,-0.97905 1.7094,6.51836 2.0733,-0.96613 -0.7281,-3.90219 2.2866,3.6814 -1.5219,2.28444 -1.5832,-1.1363 -1.2559,2.69157 2.851,2.43523 -2.3857,0.3425 2.7013,0.60962 -4.3751,0.8261 3.4887,-0.39528 -3.4079,3.22902 4.0293,1.04366 -2.1024,-0.44266 0.7173,1.34739 -1.8148,0.30265 1.4981,0.26173 -3.1644,1.05444 1.4002,1.37756 3.6933,-2.26829 -3.6093,2.31675 0.8121,1.79115 2.4018,-0.61069 -1.7954,1.43356 1.7578,-0.73348 0.1025,1.96779 2.4578,-2.34907 -0.4179,-1.44756 2.3437,0.44051 -0.88,-2.04532 1.3744,1.08675 0.308,2.72817 -2.3555,-0.84549 -3.0147,3.09009 1.9387,-0.007 -1.1889,1.25909 1.8372,0.87563 0.3868,-1.75129 0.043,2.75512 1.608,0.82395 -0.3156,-1.79762 1.5564,2.88974 1.0748,-5.50375 -0.3693,7.83451 2.0744,0.71624 0.9758,-3.00068 0.2972,3.5209 1.9021,-1.02967 0.025,1.65868 -2.4631,0.12601 2.1476,2.33829 5.6201,0.69686 2.2123,-2.58494 -1.4067,-7.28737 2.2726,-1.15352 -3.0007,-4.66797 7.8076,6.81885 0.6871,-1.27848 1.9345,2.72711 -1.0792,-2.62156 2.3447,3.47783 7.6073,3.25378 0.1259,2.29413 4.8274,3.89464 3.061,-2.69263 -2.4159,-4.77244 2.8436,-1.79869 -4.5097,-8.17487 -5.4122,-4.21667 1.0081,-0.98552 -2.209,0.64408 1.804,-3.07069 -1.649,-2.09702 2.305,1.22677 -0.8757,-3.59522 -1.8041,0.50407 0.1734,-3.28612 -6.0476,-1.81053 -1.7847,1.0792 -10.5035,-11.03983 1.8687,0.3005 -1.3506,-8.47859 -2.0475,-4.14129 -5.1731,-2.9242 1.4217,-0.23912 -2.9566,-2.19181 1.9777,-0.1594 -1.6792,-1.81053 2.6732,-2.78204 5.5189,1.59296 6.025,15.99431 7.674,4.24898 3.9367,4.39871 3.6415,-0.36942 0.054,-1.72438 2.556,2.71849 2.8509,-14.75892 2.041,1.55742 4.1273,-1.86976 -1.7824,5.07402 1.8115,1.88162 -4.3384,3.28071 -0.8648,6.09615 4.7907,3.2581 1.4175,-1.5822 5.1461,4.96631 0.197,2.75834 -5.593,-1.36786 -0.5473,2.67111 3.8279,6.08644 7.9606,6.55713 -1.3689,1.53588 -2.6087,-4.71751 2.112,4.02281 -0.4102,2.09273 1.2095,1.39047 0.8056,-1.29246 0.1218,4.33839 -0.9618,-3.033 -0.7411,3.67492 -3.9259,-0.53853 -3.2344,10.48408 1.523,2.38783 -7.1818,-1.0275 -3.0428,6.5862 -1.1965,-2.67218 -2.1142,2.24458 -3.8582,-1.26122 -3.2774,-4.76276 0.2079,-6.25662 -3.0718,0.14972 -3.1612,-6.06492 -2.1261,6.66914 8.875,12.76097 0.3231,-1.28169 2.6065,1.30647 -0.3662,1.77714 6.2673,1.64468 -4.3997,0.30373 1.6684,3.06099 -2.8079,-0.8078 -1.7556,2.29737 2.3018,1.30647 -4.849,1.92147 -0.2919,2.70987 3.2603,1.72653 -0.6409,2.57094 -3.8957,-2.62587 1.5832,6.79624 2.7595,0.20787 -2.922,3.20962 3.0694,-0.49544 -6.3955,7.49202 2.585,3.746 -2.5484,7.84959 -7.6966,1.04582 5.3444,5.35082 -4.1445,3.09224 -2.5064,-1.61452 -4.8811,5.02232 2.9468,0.503 -1.7902,0.58375 2.3039,2.46755 7.9088,-1.66406 5.0395,4.934 3.0472,-0.25741 1.3667,3.9151 0.9014,0.51806 4.2652,13.54184 -21.2493,9.43611 -3.3237,-0.84333 -4.8296,7.12041 4.5409,3.24302 4.1995,14.06207 -0.223,9.4598 1.9883,-2.25967 0.01,4.10466 2.6335,-0.99627 -0.9478,0.53421 2.2112,8.69079 8.889,-5.48008 8.3418,5.56623 3.5736,-6.72192 9.6461,-4.71104 0.9091,-5.9949 2.6905,-2.23597 -1.0135,-4.80152 1.8611,-3.97973 -2.9155,-1.32801 -1.3874,-3.75785 0.8509,-10.0931 5.632,-9.73877 -3.7472,-4.93076 -0.052,-3.43689 1.7362,-3.17301 8.7048,-1.4831 3.6416,-13.6808 6.0163,-0.72486 8.232,6.45588 21.7425,1.19016 5.6266,4.87907 1.1384,6.1403 1.5662,-0.67856 -1.4778,-6.29754 0.9445,-2.81758 -4.5592,-1.95379 -1.2546,-4.68951 3.1298,-1.8353 3.0751,1.26877 -0.8025,-2.29521 -11.6709,-0.15724 -1.104,-2.89838 -4.2771,2.80897 -8.7424,-5.18064 -5.8915,-0.52884 -5.0537,-5.77732 2.3685,-5.48762 4.8618,4.60442 -0.2207,-4.39654 10.5067,6.01536 2.8661,-1.83853 4.3588,0.73994 -2.5526,1.01673 6.4526,-1.92254 4.653,1.27953 4.4137,8.09409 8.9848,3.63292 0.6527,-1.58759 -0.1571,2.2866 2.6484,1.43895 5.7761,-5.31528 0.025,2.1175 -4.7145,3.0233 0.6441,2.68725 5.1323,3.65769 0.3112,-2.35874 3.0912,2.24995 -1.0814,-2.63448 2.6495,0.22404 -5.1193,-4.39116 2.3492,-1.71469 -2.8283,-0.74209 0.6279,-2.42231 2.6086,0.503 -1.7588,-2.78635 -6.1371,1.03183 0.6571,-2.36415 -1.5511,-1.40126 1.5961,-0.32741 -6.5635,-4.32117 0.1367,-1.84714 4.948,0.59346 -2.0614,-1.4842 2.2295,-0.93272 -3.7611,-1.07276 2.0087,-5.34005 4.8284,-3.07392 1.1138,4.83922 -1.0577,-8.54322 2.6086,-4.4547 -8.0187,-3.07177 -0.6676,1.32154 -2.262,-8.91803 -5.8053,-7.67188 1.3926,0.89072 0.2854,-2.502 -4.2339,-4.53011 1.159,0.70656 -0.7184,-2.44601 0.7679,2.59356 -0.9964,-4.32438 -1.8967,-0.46852 1.8806,0.43943 -1.6953,-2.89082 0.2284,-4.88768 2.459,0.5019 -1.7266,2.18967 1.3754,-0.80888 0.4351,1.42495 2.9651,-4.55811 1.5716,1.146 0.3908,5.3799 0.7378,-2.29522 4.0854,3.30442 1.6306,-0.87457 -1.2731,-12.00595 -0.9855,3.71906 -4.6119,-1.7739 4.696,1.859 -0.9349,1.07059 -3.1278,-0.94351 -1.9528,-4.6615 1.844,2.47508 -1.6048,-5.08263 0.3769,-11.90903 2.2543,4.31578 -1.0211,2.38137 3.9345,0.17988 -1.3183,-0.004 3.3432,5.78595 -0.1162,3.48968 15.3631,-4.1596 4.1617,2.64309 1.7417,3.117 0.9681,5.81181 -1.6058,5.6847 -3.5467,4.64427 -5.3143,0.46422 -1.9182,5.37668 0.6582,10.7081 -3.9357,5.56193 1.8558,1.73944 1.5229,-1.65328 -1.371,3.25702 1.1513,1.33986 -4.417,6.44079 0.7011,4.193 1.5521,2.43738 1.4077,-3.089 3.0374,5.22049 1.6802,-0.35865 -0.4987,2.18642 -1.9129,-1.05444 1.1664,2.63771 3.1742,-1.68452 0.6753,2.362 2.8186,0.0731 0.2574,2.59462 1.7955,-3.80093 -0.4158,4.8683 1.3022,-4.39762 5.0471,-0.17987 1.0545,-2.64741 -2.0152,-3.95279 0.9413,-1.68023 5.7181,-1.26446 1.0555,-4.75628 -1.2032,-4.94908 1.9798,-1.10184 -0.1228,-4.04434 4.1488,7.30136 4.207,4.02821 8.5744,21.4259 -2.5365,8.83833 -1.8837,-1.79115 -1.8126,2.69803 -1.2774,10.61225 -6.3439,3.80847 -4.3072,5.45099 -1.9257,-1.61559 -4.6065,4.39871 -2.0498,-1.86869 -4.5506,2.7885 -1.9881,9.07421 3.8482,7.32183 -1.4056,6.47851 -5.228,-0.0323 -7.8559,3.79016 -4.5162,-3.86988 -7.3606,2.37814 -3.4649,3.42074 -9.8766,0.31343 -1.7879,-1.69529 0.9564,-8.90835 -5.0837,-3.34856 -0.9887,-6.8824 -0.8714,3.71477 -4.249,-1.82454 -4.8619,7.57172 -6.011,2.2769 -2.6668,5.18387 -6.2178,1.78576 -9.7883,8.98697 -2.7336,6.28786 -3.5768,2.73681 -2.7272,6.12199 -3.7977,1.64144 -1.4034,-1.71037 -6.878,4.91461 -4.9912,-2.80681 -1.7696,1.67052 -0.2618,12.54017 -8.7209,13.77557 -0.6645,8.14256 3.1418,7.88405 -1.5015,5.7418 -5.0233,8.61861 -6.6455,4.5441 -2.0798,9.29931 -3.7201,4.21883 -0.529,10.07375 -4.5257,7.07192 0.9716,-1.3775 -4.865,15.36845 0.196,6.06168 0.8023,-2.27476 4.9018,4.57324 -1.2312,5.67413 4.2533,8.9998 -1.5165,13.0463 -4.9502,7.1475 6.5335,3.411 0.3618,2.9985 5.3541,-2.4534 -4.3965,2.8508 -2.2587,-0.6258 0.25,5.2141 3.1762,-1.1148 -3.1579,2.0875 4.5214,-0.9091 -1.8482,1.9926 2.9888,-0.2369 -0.4577,1.6489 5.8118,-3.2033 -3.2203,2.1316 2.8659,0.01 -2.5849,2.613 1.7579,1.4141 1.2503,-1.4561 -0.2918,1.6328 2.1465,-1.5682 1.8612,4.4805 5.5565,0.6398 -0.9423,1.9711 2.5214,0.1798 1.12,4.2263 1.9441,-0.8023 -2.5881,1.6371 5.1332,2.0173 -0.223,2.2253 7.658,0.6947 14.8988,5.3831 7.0095,-0.3824 7.2574,-6.5119 11.2326,-6.4752 10.8265,-2.4826 16.1947,-16.4285 11.7022,-9.5104 -1.8731,2.4256 4.8715,-2.7595 3.2291,1.2462 1.299,-1.9969 -1.2021,2.1941 2.1756,-0.8586 -1.6629,1.3691 0.9339,0.3877 1.3958,-1.7546 -1.2968,2.9555 3.1784,2.6194 3.2571,-2.3511 -0.021,-1.4962 0.7422,0.8876 -0.5138,-1.3475 1.1277,0.8508 0.1733,-2.1325 1.2905,0.7281 4.098,-3.4164 -0.3435,-1.929 1.5703,1.3409 1.0868,-2.2618 1.9537,2.9952 2.136,-2.4632 0.5481,1.1633 -1.2354,0.9262 2.0562,2.4083 -2.3341,11.8133 1.5133,-0.6387 -0.096,3.2828 -1.5165,0.8346 2.8961,-0.464 -2.0624,2.182 -0.6486,-1.0705 -0.9661,6.1025 -1.8568,1.1417 3.7202,5.6977 8.1511,3.0653 1.1902,4.6529 1.8644,-0.3371 -1.6661,1.9473 2.922,6.7726 -2.1078,4.5439 1.58,5.7851 -2.095,6.1251 -5.7126,8.8557 -6.2501,12.7501 -3.0073,8.5292 1.6791,8.9934 -6.8479,12.1116 -3.9688,7.5534 -2.138,2.2294 -2.2791,2.3287 -2.7369,2.7421 1.8193,-1.8169 1.468,-1.4863 9.7775,-10.3237 5.7568,-6.4602 7.6127,-9.0257 13.6205,-17.7175 7.6967,-11.0626 4.7756,-7.3132 7.1464,-11.6903 -0.7681,1.3022 0.062,-0.1056 10.3097,-18.6062 4.1844,-8.3332 1.7201,-3.579 1.7815,-3.8171 0.042,-0.091 4.346,-9.8163 2.7302,-6.5829 6.8921,-18.4501 3.7342,-11.4449 2.1413,-7.18937 0.532,-1.87088 1.5272,-5.59201 1.1094,-4.29635 -0.2746,0.6936 1.259,-6.59695 0.6634,-3.12781 -0.3101,1.12981 1.0996,-5.45748 -0.2466,-1.53262 1.3657,-8.55178 1.97,-13.77345 0.9952,-5.70194 -0.1443,-0.76364 0.5471,-2.12073 2.1325,-22.87239 1.1568,-18.98098 -0.1357,-18.56524 -3.7352,-36.75673 -1.0157,-4.73582 -0.2196,-2.77021 0.081,1.747 -1.8278,-8.07793 -0.1497,1.29138 0.8788,8.87603 -0.1562,9.13668 0.2823,6.50436 -0.5041,1.71037 -0.072,7.56632 -2.5236,-0.37158 -0.3866,3.04053 0.052,-5.83335 -0.7118,-2.24997 -5.1203,-2.10672 -1.5468,2.31352 -1.3194,-1.47988 0.5214,2.74218 -6.8384,-10.40006 -3.1492,0.36944 -5.5543,-10.65749 0.6268,-0.0463 -2.9306,-3.40242 -3.9302,0.20679 -2.7918,-4.26084 0.5386,-1.06304 -2.5646,-0.59455 -11.7873,-11.08292 -4.9987,-2.24566 -3.2268,-4.31362 5.5436,4.26945 4.1112,0.54285 -4.3233,-11.65485 3.7547,8.64555 1.1006,-2.11966 11.0065,6.75746 2.446,3.35289 2.8359,-0.95643 4.2921,4.20591 3.2247,6.35141 4.7735,0.51698 7.801,7.29599 2.626,7.95623 4.6938,9.29716 0.9037,-6.85547 -0.5612,-5.51023 -0.1249,-15.91244 -0.9004,-5.55869 -1.9074,-16.3519 -1.5835,-5.15695 -2.1066,-12.91822 -1.8342,-5.47469 -0.7949,-4.16714 -2.0205,-5.61362 -1.3615,-5.30127 -2.7152,-5.65885 -1.1449,-3.04915 0.1647,-0.37267 -5.5317,-13.06578 -2.2553,-1.64576 0.2379,4.23068 -1.0694,-0.27357 -2.9415,-3.65661 -2.2468,-4.05619 7.5793,19.02191 0.3231,5.43806 0.894,3.17409 -0.895,1.37325 -4.5635,-8.39135 -0.1207,1.91824 3.5962,6.59051 -3.5574,-2.85205 -1.8945,-3.54351 -2.9608,0.61391 -5.6051,-5.07617 -0.1541,1.36786 -0.4576,-2.55477 -1.76,-1.48203 0.3479,-3.11916 -1.2364,-1.80408 1.3193,-0.61177 -0.5773,-2.75725 7.1098,5.05138 0.6494,-2.6474 2.4255,-0.72271 0.1357,-3.12777 -3.187,-10.10603 3.6706,3.6803 -2.2154,-13.4309 -8.4765,-19.93526 1.7717,2.44277 -0.9596,-2.1078 1.8977,2.82405 -1.7372,-3.40135 1.1859,1.96886 -1.8505,-3.30441 1.6641,2.90913 0.1454,-0.0807 -2.8941,-5.13217 1.5972,2.74757 3.0783,5.53285 -0.1,-0.2542 -3.8872,-6.85009 -3.1514,-5.31958 -1.1773,-1.93762 1.5952,2.63341 0.7,1.16861 -0.8799,-1.46912 1.6349,2.74111 0.5924,1.00598 2.8003,4.85861 7.1474,13.22734 6.4236,13.09485 3.5306,7.79251 0.082,0.18634 -1.5057,-3.38735 -1.7073,-3.73308 -2.1734,-4.60442 0.048,0.10012 -2.4459,-5.00293 -1.1772,-2.34153 -2.9835,-5.7601 -5.0816,-9.29285 -3.915,-6.76069 -1.997,-3.32811 -1.5551,-2.54186 -2.2565,-3.60491 -3.019,-4.68951 -1.3248,-2.01086 -7.8379,-11.35541 -5.3872,-7.31862 -5.0213,-6.50434 -4.1618,-5.17634 -1.5198,-1.845 -3.4756,-4.13052 -2.2553,-2.61724 1.5122,1.74914 -2.7045,-3.1127 0.5073,0.57838 -1.5909,-1.80621 0.5903,0.66776 -1.9192,-2.16058 0.1615,0.18094 -2.1984,-2.43629 1.1482,1.26769 -3.5908,-3.92588 1.7716,1.92255 -1.0813,-1.17615 -1.6393,-1.76529 -2.1089,-2.2392 5.1506,5.53284 -2.1768,-2.3663 1.7599,1.90855 -1.2515,-1.36032 1.175,1.27631 1.4691,1.61344 0.5784,0.64085 -2.1885,-2.40723 4.9404,5.49407 6.3449,7.38646 -1.9591,-2.32321 2.0065,2.37921 -1.4896,-1.76959 0.4244,0.50082 -1.7157,-2.01947 0.5224,0.61176 -2.4116,-2.80143 -2.1046,-2.40075 -0.8197,-0.92305 0.2629,0.29512 -2.2683,-2.53001 -2.4127,-2.64203 2.3837,2.60973 -1.1719,-1.28925 5.928,6.64652 3.8538,4.49564 -1.7093,-2.01086 2.9544,3.49612 3.6372,4.42348 -0.1271,-0.15617 4.4213,5.56299 2.2102,2.86282 -1.6381,-2.12719 8.0671,10.7932 -1.3895,-1.91609 3.2086,4.46764 6.4074,9.35424 3.3443,5.13433 1.2882,2.02917 -1.9258,-3.02114 0.4027,0.62792 -3.341,-5.11709 -5.6566,-8.26964 -2.1293,-2.99315 -2.1143,-2.91344 1.1211,1.53696 -6.0282,-8.08224 1.4055,1.84285 -3.55,-4.61412 -8.3493,-10.30205 -3.8558,-4.51718 -3.0816,-3.50905 3.424,3.90325 -2.3297,-2.66895 0.059,0.0667 3.7999,4.38256 -2.0238,-2.35014 2.3469,2.72818 -1.2947,-1.51219 0.08,0.0926 5.0633,6.01107 -0.7885,-0.9532 -4.1498,-4.91139 -1.6135,-1.86547 0.3286,0.37805 -1.719,-1.96563 0.5008,0.56976 -0.9263,-1.05336 -0.4286,-0.48468 -0.1863,-0.21002 -0.5709,-0.64084 -1.0759,-1.20093 -0.2812,-0.31127 -7.4726,-8.04561 -5.5652,-5.69871 -0.643,-0.643 -9.6893,-9.32733 -2.3619,-2.17566 -0.1411,-0.12815 -4.7767,-4.28347 -4.8176,-4.17466 -3.3648,-2.83267 -1.9537,-1.61452 -0.3254,-0.2671 -0.9856,-0.80349 -1.8222,-1.47342 -3.3981,-2.69587 -2.0283,-1.57789 -1.7609,-1.35385 0.642,0.49113 -2.7379,-2.08088 0.2853,0.21434 3.2032,2.44276 2.4514,1.90747 -0.9618,-0.7507 -5.4412,-4.16068 0.8141,0.61286 -4.5257,-3.36366 -1.3797,-1.00383 -1.3043,-0.94134 -1.3797,-0.9855 -0.726,-0.51591 -3.0943,-2.16704 1.5637,1.08998 -1.8103,-1.25908 0.1722,0.11848 -3.8569,-2.63449 1.6403,1.1126 -1.0867,-0.73886 -2.8531,-1.91178 1.1417,0.75933 -2.7865,-1.845 0.5365,0.3522 -3.6093,-2.34583 -2.1078,-1.34418 -0.2811,-0.1777 -2.6797,-1.67806 -1.9612,-1.20846 0.591,0.36297 -4.0561,-2.4557 -0.3413,-0.20463 -2.3522,-1.38941 -1.5641,-0.9112 -0.8798,-0.50837 -1.5714,-0.89933 -0.6054,-0.34358 -2.3663,-1.33017 0.5385,0.30049 -3.3271,-1.8396 -2.6236,-1.41956 0.6785,0.36404 -0.7485,-0.40281 -1.1472,-0.61178 -0.5125,-0.27142 -8.2546,-4.24146 -0.4471,-0.22293 -3.4121,-1.67377 -1.6143,-0.77762 -2.1899,-1.03828 -0.3811,-0.17881 -1.6932,-0.78948 -1.9936,-0.91657 2.041,0.93813 -3.9765,-1.81378 -0.039,-0.0183 3.6632,1.66945 -8.5292,-3.81279 -1.6942,-0.72809 1.4734,0.63223 -3.9314,-1.67051 -1.5993,-0.66454 -6.7737,-2.7185 1.5037,0.59022 -1.5575,-0.61175 -8.0779,-3.04486 -0.5666,-0.20572 -1.5358,-0.55251 -2.5656,-0.90581 -5.6901,-1.93548 -1.0921,-0.35974 -3.0654,-0.99089 4.3105,1.40125 8.359,2.8822 -3.6189,-1.27523 3.2549,1.14491 -3.1117,-1.09537 -4.9727,-1.68667 -13.906,-4.31361 -4.1864,-1.18477 1.1018,0.30697 8.3267,2.43522 -2.4589,-0.74101 5.7989,1.77607 -13.90701,-4.08959 -4.99318,-1.32802 5.23229,1.39372 -0.31663,-0.0861 2.23373,0.61716 3.2604,0.92735 -1.6135,-0.46314 1.6296,0.46744 -1.4142,-0.40604 -1.0771,-0.30482 -1.1276,-0.31665 4.3049,1.22784 -0.5061,-0.14756 2.5795,0.75826 1.1612,0.34788 -1.718,-0.51376 2.9532,0.8875 -1.0813,-0.32742 7.2712,2.27366 1.6975,0.5547 1.0124,0.33495 1.0587,0.35328 -4.4019,-1.44649 1.6199,0.52561 -2.8887,-0.93165 1.0145,0.32419 -2.1099,-0.67101 -0.2682,-0.0839 -2.9177,-0.90259 -0.1864,-0.0571 -6.5925,-1.94194 -5.60506,-1.5488 -6.34387,-1.64144 -0.0597,-0.0151 -3.07817,-0.75394 -12.02751,-2.68403 -4.99004,-0.99305 -5.46932,-1.00919 -1.87184,-0.32635 -0.9403,-0.1594 -5.61901,-0.90581 0.16155,0.0247 -9.46949,-1.33554 -21.7921,-2.14981 -19.14147,-0.84012 -8.78016,-0.0301 -4.4181,0.28649 3.75032,0.25742 -2.27582,-0.0291 -0.83473,0.11955 6.59268,0.39422 4.18221,0.0333 0.31773,-0.1357 5.0094,-0.0851 -1.81592,0.30696 3.81709,-0.14325 -0.4513,0.41467 4.17038,0.13032 1.80838,0.28219 -11.58161,0.56222 -14.73952,2.53647 -10.72534,0.7324 -1.35278,-0.22079 -1.33018,0.4459 -8.24271,0.46205 -1.17616,0.72057 -10.04032,0.62576 3.88387,-0.65055 -1.09106,-0.15832 -12.2483,2.2349 1.14922,0.18524 2.69481,-0.49759 0.25741,0.47175 -5.08478,3.14392 -10.17281,2.86067 0.4082,-1.21707 -0.66347,-0.31236 -1.73513,0.56763 -0.22296,-0.61933 -4.17144,2.7142 -2.71096,0.7324 2.16167,0.86703 -3.34429,1.24616 -2.44275,0.34465 2.73034,-1.16214 -2.37276,-1.73729 4.59365,-1.86224 6.70685,-4.71858 4.5958,-1.12984 1.1923,-1.32263 -0.71301,-1.09753 -10.51317,-0.13677 -5.05893,1.52188 1.65005,-0.009 -5.93674,1.38187 2.16812,0.16802 -6.56575,2.07549 2.94037,0.44052 -4.10789,1.19875 4.7455,-0.0538 -1.244,0.79703 5.15156,-1.07921 -1.04904,2.97914 -2.30921,0.81641 -1.80514,0.0538 -2.55587,1.85685 -1.67913,-0.51269 -0.60962,1.15462 -5.86134,2.35337 -4.93831,0.62899 0.76902,0.58271 -3.99695,4.16174 -6.30941,4.64534 -5.81181,2.29845 0.52346,0.8401 9.47702,-0.4416 -1.0092,-0.19925 3.75031,-0.34789 2.20043,-1.82454 0.65378,0.33067 2.43199,-1.05336 -9.51365,4.85645 0.2822,1.97101 3.32596,0.57407 -1.69206,1.0749 -3.57584,-0.73886 -3.63722,2.36414 -5.31636,0.81425 -5.4079,2.08196 0.60854,0.56546 -1.94733,0.0699 -1.05659,1.29677 3.4175,-1.14814 -0.78625,1.57358 1.87839,0.24772 2.64633,-1.07706 -4.61088,2.42769 2.34798,-0.34681 -2.55155,1.05228 0.86057,1.40126 7.09997,-2.12289 4.18328,-2.26721 1.49173,-1.22676 -5.16342,0.17663 8.90188,-0.40712 14.00175,-3.60277 0.0259,-0.009 m -46.94461,688.54682 1.4594,0.5513 -0.11848,-0.044 5.16988,1.898 0.99413,0.3554 -2.12827,-0.7648 0.29296,0.1067 -2.25536,-0.8241 4.53225,1.6383 1.13199,0.3985 6.03691,2.0593 3.36365,1.0998 -2.75726,-0.8972 -2.39323,-0.7992 2.40614,0.8023 -2.21981,-0.7398 3.24196,1.0749 -1.94087,-0.6398 1.96348,0.6473 1.54557,0.5019 0.0969,0.03 5.41976,1.6974 -1.26985,-0.3898 -4.67335,-1.4756 -5.41006,-1.8083 1.07599,0.2638 5.2571,1.592 -1.69851,-0.9457 3.15792,0.616 -3.55751,-1.2225 2.32213,0.6096 1.99148,0.7777 1.77283,0.3566 -1.76636,-0.8305 -2.47508,-0.4869 -3.26241,-1.1987 -2.28659,-1.6156 6.31047,2.1821 5.99276,1.4422 -2.27905,-2.0701 1.58111,0.4987 -2.54077,-1.2978 6.20816,1.8374 11.9241,2.2479 4.15204,0.3435 2.95114,-1.0048 -0.93595,-0.9619 -3.71155,-1.2645 0.16803,-0.9757 -8.07039,-3.088 -0.90258,-2.502 1.04151,1.7029 3.60923,1.6898 9.26377,2.5666 10.22558,1.3464 6.89963,-1.7859 0.76902,-2.3672 5.53716,-2.2005 -1.39803,-0.9801 4.39116,1.5487 -7.21843,2.5808 6.38802,-1.2398 5.04063,-3.4488 4.93938,-1.2708 1.0663,-3.3195 -2.38677,-2.3901 2.3943,-1.7308 -2.38675,-0.7689 3.145,0.5611 3.47567,-1.8677 6.84146,-1.678 5.76657,0.168 5.82473,-2.2682 5.18818,0.6323 2.81111,-1.0912 0.23805,0.9188 6.27493,0.223 0.27681,-1.396 5.91304,-1.5208 -0.55146,-1.5659 7.7419,-6.0962 0.69577,-4.1769 3.52737,-2.4007 1.99578,-18.2217 1.00167,-1.0102 1.39048,1.6877 2.59894,-1.4335 20.50287,-18.8325 1.0372,-5.3713 -2.9296,-7.4327 -2.3092,-1.5919 -10.02634,-0.2338 -8.65954,-5.7687 -10.15988,-4.0616 -14.70506,-0.079 -7.62772,-2.7982 -9.12914,4.5248 0.42866,-3.5123 2.54293,-1.2602 -4.1079,0.3264 3.30011,-1.76 -2.30383,-3.2472 -2.65386,1.9989 -0.58269,-2.6591 -1.27415,0.8798 0.69254,-1.0458 -1.82777,0.5753 -1.91932,-2.0358 -1.04259,1.2128 -0.32743,-2.0852 -0.98334,1.048 -6.16831,-3.0491 -0.49438,1.1201 -4.47623,-1.2343 -2.85852,3.7148 2.78418,0.6915 -2.46645,0.5427 -1.34632,-1.6682 -5.37775,4.2865 1.29462,-3.0653 -7.50708,0.2866 9.99508,-1.129 3.30658,-5.6824 -12.67266,-2.3469 -2.97162,4.2457 -0.22616,-2.3597 -2.6668,1.8795 -0.26603,-2.432 -2.65173,2.0463 2.50094,-4.2393 9.15068,-5.3894 -1.5542,-0.2359 1.3474,-2.431 -5.37991,-2.6549 -3.29687,-11.7356 -1.57358,-1.1504 -0.73456,1.8687 -3.96895,-5.3067 -11.84332,-6.8695 -18.75158,-3.1202 -7.22597,-7.2927 -2.28229,2.3242 1.54019,-4.9416 -3.31302,-4.2113 -7.0278,-5.4659 -3.97219,-0.6603 0.43837,-4.7121 -4.53873,-3.7998 -4.25652,-0.6172 -3.04054,-4.0239 6.28248,-0.4867 -14.27748,-3.4489 3.56723,2.0325 -8.53677,0 -6.57652,-5.4533 -10.99352,-2.6677 -1.1083,-4.4699 -6.74452,-4.0982 -1.72653,-4.9554 -1.58651,2.7745 2.45138,0.5482 -0.0905,1.539 -1.85793,-1.5165 -8.55721,1.2828 2.46968,7.2745 -0.49006,2.1541 -3.67491,0.054 -1.88916,-5.1633 3.58875,-3.7794 -1.54774,-5.6503 5.04172,-0.95 -2.75297,-3.5489 -9.57397,3.0761 -4.63887,-2.28 -0.95966,1.5928 -2.9339,-1.9602 -2.41693,0.7248 -2.79603,2.6129 -0.0172,4.0659 -7.44677,1.6716 0.50189,3.9378 -4.99107,-9.3866 -5.28727,-5.3174 -3.2441,-2.0109 -7.76773,0.4955 -3.69539,-4.3277 0.34143,1.6361 -2.16274,-1.5756 -5.92058,-17.2771 6.22323,-15.04129 0.19387,-5.74833 -6.52373,-8.8221 -13.99099,-7.51037 -3.03082,-3.58122 4.49024,-3.81386 2.59786,-7.53616 -1.23322,-1.04473 2.1875,-1.68129 -0.14863,4.42998 3.98834,-6.73812 -1.24293,-1.41956 6.8167,-6.79192 -5.06433,-5.55439 -9.63427,-3.11054 -4.67982,8.22657 -4.8015,2.58924 -2.63772,-3.83432 -8.74464,-3.22363 -1.65113,-6.17693 -2.37383,-2.20258 -0.0248,-24.91449 0.72916,-3.28396 4.37287,-10.55624 1.89885,-3.86232 1.66835,0.3705 -1.34308,1.88378 3.4789,-3.9948 2.34905,-8.08978 -1.08135,-1.244 1.30754,0.92626 2.83051,-3.97003 3.22363,0.95427 -0.10341,-2.3566 2.03996,2.4837 -1.22462,0.17986 5.07294,0.13465 2.14011,-3.20856 1.30971,2.44599 -1.52297,0.18956 3.94205,0.99628 0.75393,-1.81054 -0.69362,1.75023 4.77675,5.34974 2.51061,-0.26819 1.5919,7.02457 2.15411,-0.31342 0.69363,2.13149 0.76255,-2.67972 1.35817,1.7233 -0.0559,4.20375 2.19828,-0.34897 -1.71898,-4.16498 2.55047,-0.55252 -3.47889,-5.13326 8.666,5.72133 1.66835,-2.3146 -0.13893,2.92098 -1.34417,0.19818 4.78644,0.46745 -1.25799,1.10936 4.20806,1.73946 -1.48957,-0.2305 3.48967,2.91129 -0.61717,4.37824 5.74934,0.17125 1.66728,2.60109 2.08841,8.88034 -3.09222,5.34651 2.07979,0.68824 -2.21659,2.0561 0.30805,4.15422 1.68128,0.54283 -0.90687,6.98257 2.48476,3.82894 -1.11259,2.488 2.51493,1.0372 -0.45022,1.23538 5.85381,-9.6849 2.34799,-30.03481 6.22,-3.78909 -0.0161,-2.04858 0.32635,1.93117 11.26926,-4.8963 13.06685,-1.56389 -2.53216,-2.03348 2.79174,-0.53745 -1.77174,-2.43415 3.26561,2.6851 2.52032,-0.9618 0.26065,-2.37384 -1.53588,1.6145 0.67532,-2.14334 -3.04592,-1.01675 3.09869,-1.16107 1.25476,2.22306 0.80027,-4.27161 -0.3479,6.58512 0.64408,-7.89805 -3.42288,-3.92265 2.05932,2.07765 -0.62576,-3.47567 0.59777,2.35014 1.61127,-1.50681 -1.61773,-3.82138 1.45833,3.4078 1.19983,-1.46697 -3.45518,-4.94261 1.20414,-1.71252 2.24244,5.59531 1.71898,-8.01652 3.78369,-0.2305 -3.75568,3.19456 0.97043,6.76284 -3.30765,4.6098 6.81024,-6.12415 1.14814,-8.96543 0.90689,6.08 5.15694,-3.61999 0.96396,-4.88662 4.18113,-2.00656 9.52982,1.66407 1.37217,-2.71096 0.0516,2.60648 5.68686,0.79702 0.43406,-2.60863 -1.91179,1.62204 -1.55634,-5.2528 6.38802,-7.03856 2.03349,0.57192 0.7464,-2.15952 2.03134,1.84069 3.22147,-3.97757 -0.78841,2.20905 3.00392,-0.87673 0.21326,1.84608 5.64916,-1.47449 -0.11956,-2.87574 2.66572,2.02594 10.49056,-2.446 -3.61247,2.70557 6.66806,1.71252 -3.75678,1.38617 -1.01566,-2.58278 -8.46997,3.18486 -1.65975,4.29423 2.31352,3.12993 7.14088,-5.52854 2.56557,1.65652 0.48575,-1.8784 10.93967,-0.24772 1.73729,-0.4599 -3.103,-4.5775 -6.12738,-0.44913 -4.79292,-5.51668 1.16432,-4.85753 -2.53324,-0.73348 3.98188,-3.83324 -3.88281,0.22079 0.0108,-2.11642 -3.64369,-1.68775 6.192,1.77606 4.52472,-1.43572 0.28865,-4.64103 -5.89151,-2.45246 -9.03435,0.95966 -15.95985,6.89101 7.296,-3.94957 0.87565,-3.0933 12.45185,-2.98775 5.64486,-4.68952 25.30655,6.99872 6.45372,-5.19465 7.03103,0.37805 5.91197,-3.26024 -1.64251,-2.67543 2.39645,0.47283 -3.28395,-1.6479 2.95976,0.61716 -1.29786,-1.80085 2.22412,-2.88435 -1.89346,-3.31841 -3.87848,1.62096 1.71791,-3.02975 -3.37012,-2.64096 -11.28218,3.98081 10.51316,-4.07558 -4.74982,0.20248 9.14422,-1.60481 -2.82404,-1.67698 1.18906,-0.94135 -3.87417,-0.1551 0.37803,-2.06363 -1.66942,0.8444 1.22353,-1.50033 -3.51982,2.446 2.5968,-2.12181 -2.11643,-0.15294 1.15782,-1.22892 -3.88709,1.37324 2.80681,-4.52795 -1.64251,1.1083 0.76363,-1.54666 -3.68462,-1.92148 1.99687,-1.20198 -2.39537,-0.62577 1.62744,0.0474 -1.78792,-1.70714 2.06903,0.0905 -2.53001,-2.08627 2.62156,1.58651 2.00656,-2.64956 -3.05238,-3.34319 2.39214,-0.31234 -1.92793,-2.45138 1.25908,-1.26124 -3.34642,0.42866 3.66092,-2.35337 -3.74493,0.20895 3.2904,-1.77498 -0.11631,-2.34476 -2.91129,-0.58485 2.54939,-0.44912 -2.16596,-6.03584 1.51327,-1.00597 -1.12445,-1.15675 -3.56721,3.03945 0.69793,2.59786 -2.49877,-0.0172 0.76794,1.72112 -2.91452,0.60424 -0.98767,3.31626 0.19172,-3.81062 -6.11984,3.60491 0.47176,-3.66739 -3.60815,2.6711 3.10192,-4.16713 -5.68254,-2.02057 2.00009,-1.17506 0.18525,1.76637 2.33183,-2.62587 -1.53265,-0.54714 1.94301,-3.64045 -3.05884,-1.68453 3.64045,1.19231 3.13424,-5.54253 -1.85685,1.11797 -3.68138,-3.79878 1.57681,-2.516 -2.03455,-0.52237 -0.81426,-6.52913 -3.34642,1.11906 -5.52961,-5.88934 -3.01468,0.81209 -0.82827,4.70782 -4.51178,3.08362 2.01625,0.60423 -1.95593,4.70781 -8.46784,5.57164 2.1078,5.77732 -4.08527,9.83139 -6.86302,4.58611 -8.44735,0.36943 0.5816,3.73739 -4.45794,11.95534 -3.54567,1.63819 -1.31724,3.68137 0.15402,-3.55643 -3.15255,2.27475 -2.28659,-2.2726 1.62958,-2.32859 -1.02752,-9.96278 7.92931,-12.11151 -7.50171,-5.26466 -5.18388,-20.50501 -6.21354,-1.6059 2.75081,-1.43787 4.58719,-8.03808 -1.8353,-2.05826 -1.85578,1.71468 1.58757,-4.35131 7.17429,-6.38804 8.47537,-3.14931 0.31451,-1.61235 6.18876,-0.0496 0.21649,-2.07657 1.60912,1.81484 3.14394,-0.629 0.40604,-4.04112 -2.11965,-0.33927 1.48742,-0.6904 -2.18859,-3.34102 1.65761,-1.1083 2.0227,8.1501 4.49887,-2.36846 3.43474,2.67865 6.65299,-3.11162 -3.64261,-8.92019 2.1918,1.16214 1.43142,6.35248 6.40956,-2.08841 -0.003,-2.90697 3.80525,5.45314 0.6807,-5.27758 2.35769,1.44217 -1.32372,3.39704 8.64231,-2.97376 1.3334,-6.276 3.34211,0.49221 -0.44806,-1.96992 2.56233,-0.78519 -1.91393,-3.52952 1.87516,-0.0538 -4.20376,-3.78048 -3.58122,6.06492 -1.49172,-1.03074 -7.68696,5.44775 -2.72173,-0.1357 6.99657,-9.0376 -0.20463,-2.68941 -6.36758,3.55106 3.79771,-6.45482 2.0561,0.81319 -2.48369,-3.9011 3.42934,-1.69421 0.87565,1.21277 5.17204,-10.57455 -8.52814,2.18212 0.46959,1.3937 -4.92322,2.84667 1.31723,5.3799 -1.53589,-0.87673 -3.33563,1.90101 2.40722,-0.1012 -1.63068,2.26073 -5.41328,-0.41573 -4.2533,3.9291 -0.12171,-2.77988 5.00616,-2.66033 -2.56447,0.16695 2.00441,-0.87565 -0.28327,-1.96672 -2.32645,-1.38832 -1.7179,2.71742 1.31078,1.02212 -2.34475,1.59082 1.37109,-4.02712 -2.58925,1.20308 -4.24468,-4.54842 1.38726,-3.49182 -1.73945,-2.27045 3.23117,-4.42669 -6.26094,-1.45942 0.57299,2.15412 4.15314,1.13951 -6.80055,-0.50728 -2.62909,3.65769 -1.803,1.07921 0.1088,-1.56281 -2.87252,3.00069 2.70017,-4.53119 1.78577,0.11956 2.27475,-5.52532 -3.45629,-1.66943 -1.50572,-5.37021 2.1832,-1.34739 2.11318,1.44218 2.09058,-2.98452 -1.15246,-3.11486 3.6383,-9.39841 -3.63076,-2.57955 5.27867,-2.05933 -5.65456,0.49006 7.48016,-6.20169 -2.65064,1.64681 -5.26466,-3.52198 5.8495,0.13679 -5.34974,-3.4175 -0.51268,-1.5962 2.8822,-1.10829 -2.76265,-1.50359 -3.62429,1.87301 11.93057,-13.37382 6.61205,-10.96767 2.26721,-1.88269 1.40771,0.39958 1.23323,-2.45353 2.83912,-1.10614 -1.28171,-1.1783 1.90641,0.57192 2.12072,-1.08676 -1.59727,-1.72329 1.52618,-2.25966 -2.41153,-0.37375 1.90317,-0.25634 0.3802,-2.2952 -4.23284,-3.02653 2.53324,-2.88544 -1.77176,-1.03828 -7.36922,3.18162 -3.28503,0.51267 -3.25917,2.82406 -2.78205,0.2111 -2.06903,1.85038 1.76746,-1.98825 3.84186,-1.22569 -6.21246,1.94518 3.55751,-3.8634 3.55214,-0.82828 1.47449,-5.32713 -5.44884,2.77559 1.0663,-1.30755 -4.04328,0.99521 -5.80211,4.55918 1.22678,0.0301 -2.16705,0.55146 1.04475,1.54127 -2.04748,1.50033 -0.43083,-1.10828 -3.96897,1.40017 -1.23646,-0.56115 2.00764,-1.887 -1.07167,-1.47126 2.86712,-1.81377 -5.17956,-2.41907 -2.94036,1.02859 -1.18154,1.28493 -0.42006,-0.50837 -3.99264,2.9856 1.11583,-1.77607 -4.0562,0.94567 -1.94625,3.25486 -6.26093,1.88055 -1.14814,-0.81535 -1.03614,3.03623 -5.80532,3.34319 3.13316,0.007 -3.19241,1.14384 -0.003,2.21874 -2.10027,-0.74101 -4.73151,1.20092 -0.66238,-4.6906 -2.6248,0.71088 3.54674,-3.28073 -1.82237,-2.06902 0.18849,0.56114 -1.18369,0.93164 1.76098,-0.53852 -2.27043,1.59404 1.61558,0.24988 -1.89669,0.97798 -0.33711,2.38353 -1.78039,0.77332 4.18007,5.67717 -0.33174,2.45569 2.35553,1.09752 2.06471,-2.00978 1.83962,-0.35004 6.09614,4.7089 -0.74963,2.55154 -0.89935,-1.36356 -3.08038,2.56879 2.78958,-3.02977 -0.5493,-1.60481 -4.54734,0.21756 -0.96935,1.82023 -2.36306,-0.84226 0.16693,3.4175 1.6813,-0.37912 -1.5542,0.72056 2.13365,-0.34791 -2.00439,2.22951 2.1541,0.31451 2.68511,-1.99148 1.68991,1.30216 -2.32214,0.28758 1.45834,0.2628 -1.68452,0.64192 0.45883,1.73838 -0.86273,-0.51699 -1.0792,1.47234 -0.22512,-0.99736 0.0571,1.05444 -1.97101,0.69147 -0.90258,2.1455 -2.90698,1.95593 -1.42924,5.64487 -3.18487,3.10515 1.58866,0.98012 -1.73729,1.80084 -1.15892,-0.39096 2.52247,-1.26447 -2.35229,0.12601 -8.9385,9.63213 0.72271,1.0372 4.2059,-3.70508 -2.08841,2.4503 1.75561,-0.58914 -3.93881,2.11426 -1.05444,2.15735 7.03319,-3.38627 -6.27494,3.71154 -1.23861,1.86223 1.77607,0.15402 -2.57741,0.38452 -1.30431,2.54508 -0.42975,-0.78625 -1.65974,2.25644 1.36572,-2.28446 -2.10136,2.26183 -0.85624,-0.7367 -5.53286,7.29813 -3.44335,0.10987 2.6711,1.34094 -1.90531,1.73084 -5.31851,2.3932 2.98776,0.17018 3.3658,-1.27308 -4.74444,1.92254 -0.51161,1.51435 -1.74051,-0.96504 -1.88163,2.13795 1.85255,-2.13687 -1.52297,0.72486 -0.76686,2.72064 -1.44972,-0.56976 -3.05131,3.732 3.36366,-0.33173 -2.39645,1.16646 -0.22727,1.80299 0.19819,-2.34584 -4.12944,5.45422 -2.39968,-0.0744 1.26877,0.26603 -1.6899,1.41848 2.60432,0.73241 -4.56134,0.42436 -1.80623,1.7416 1.20846,0.41575 -1.94732,-0.2305 0.28758,1.80516 -1.10399,-1.29247 0.39743,2.87898 -1.1126,-1.71253 -0.0345,3.77724 -0.60639,-0.71086 -0.68501,1.48957 1.73299,0.80133 -2.0798,-0.78625 -0.89395,2.31138 1.59512,-0.40607 -1.41957,0.60746 0.0571,1.35602 2.64741,-0.95319 -3.16117,1.41525 1.20846,1.3474 -2.68403,0.49006 -1.1266,2.4266 2.28875,-0.3845 -2.14334,2.53107 -1.16107,-0.51483 1.27955,1.52189 -3.34318,2.50093 -0.94136,2.83266 -5.87857,5.52531 -2.61403,-0.25203 2.46432,-0.59885 2.01409,-1.94731 -3.14287,0.66346 4.04437,-1.85363 0.2111,-6.39987 -6.79947,6.95673 0.38452,0.88857 -3.46814,1.83961 0.20035,2.01086 -0.3619,-1.66728 -15.81982,11.54497 -5.88181,7.17752 -4.47625,2.98992 -5.99597,8.5249 -3.34643,6.27063 0.77548,2.24458 -2.20472,3.41104 1.04473,-3.05668 -2.38461,2.89513 -6.53235,15.10681 -2.13365,2.61724 0.14432,9.64828 -1.52618,7.43709 -9.43933,22.91332 -1.50572,12.26445 -2.04427,1.97747 -0.21864,2.38569 -1.41633,-4.27807 -0.74639,10.17926 1.5488,0.28112 -0.92626,7.96161 -3.30442,6.71222 0.36405,13.21225 -0.97474,4.63998 1.89131,0.41252 1.36247,-5.82904 -0.97364,-4.65074 4.30713,-13.84665 1.24941,-10.78673 1.79221,-3.96895 2.0701,-13.90805 5.52639,-10.511 0.61391,9.71614 -5.45959,14.42718 -1.1223,8.99774 0.96289,2.47723 -1.70283,2.87897 0.10236,10.25144 -2.2715,2.04855 1.314,8.01978 -0.97366,2.38352 0.44914,16.52961 -1.2354,10.3516 -2.38352,2.43091 0.35544,2.05826 -1.50897,-0.69578 -0.3328,2.64849 2.0184,16.45851 3.82786,7.4694 1.4131,6.87269 12.13951,24.48045 8.78988,4.7929 8.59059,21.92132 10.75874,13.30275 -0.93704,-1.36245 5.79349,3.16656 -0.1077,3.04373 -1.70176,-1.09536 7.08812,16.31311 -1.41956,0.085 1.21061,1.509 -0.78841,4.7476 2.28444,3.5823 1.35064,-0.7733 -1.56604,-3.6416 2.2338,3.2334 4.50533,8.3289 -0.1637,3.425 1.34416,1.1342 -0.24665,-2.2457 1.84931,5.2636 1.02105,-1.0975 4.54195,3.3086 0.88857,3.4207 2.37169,0.1541 0.41573,4.2985 2.24892,1.0459 2.37921,-0.2865 -1.97749,-5.1838 7.43817,-0.725 2.95005,5.5447 1.8967,0.5171 -2.04318,1.845 5.01264,10.2535 -2.11319,11.9393 2.56878,2.8045 -0.64192,1.2064 -3.52952,3.4477 -4.14776,-0.9241 0.0646,3.566 -2.59572,-0.6602 0.48037,3.2063 -5.91844,-1.6596 0.69686,3.4541 -2.76913,1.3247 1.13847,2.0067 -3.15148,0.168 0.22403,6.3449 3.32918,3.7869 1.76531,-1.5488 0.89072,2.3006 -1.29247,3.0007 -5.97444,0.8853 2.51063,7.6839 -1.34095,0.6848 6.18232,6.7909 5.81287,9.3403 8.8728,16.983 9.2573,12.4594 -0.54283,1.6156 3.19887,4.1854 4.74227,4.8241 21.25574,15.4106 7.4737,6.6465 2.70018,5.9519 2.02056,5.0222 -0.37696,5.6073 3.50043,6.0907 0.10555,7.9638 2.86821,3.076 -0.94996,0.9036 6.03474,7.3187 0.15833,4.2888 -1.84068,-0.5752 6.86623,4.6098 0.47067,1.0932 3.30226,1.6599 -0.70653,-0.2327 2.68617,1.0254 1.80945,0.7982 0.77548,0.2283 -1.26554,-0.2964 2.80897,1.256 0.24234,0.2164 -1.95809,-0.8767 2.18318,1.0038 -1.59188,-0.6882 1.18261,0.7292 2.40076,1.063 -1.37217,-0.5332 3.81816,1.6189 -2.09487,-0.8595 3.41643,1.4228 -2.69049,-1.1169 0.47174,0.1982 1.37003,0.5697 0.10121,0.042 -1.79006,-0.7453 -2.17028,-0.9187 1.70068,0.7205 -1.36463,-0.5773 0.23157,0.1 -0.80241,-0.3416 -1.69637,-0.7301 -1.24076,-0.5408 2.42013,1.0491 -0.38773,-0.166 -2.17674,-0.9466 1.71576,0.7475 -1.35818,-0.5913 1.90747,0.8273 0.88858,0.381 2.35768,0.9985 2.08303,0.866 -1.79653,-0.7453 2.43092,1.0081 -2.75081,-1.1416 3.69753,1.5283 2.71311,1.0921 -1.93977,-0.7786 1.81269,0.728 -5.41654,-2.208 3.86557,1.5855 -1.79868,-0.7314 1.56926,0.6388 -0.32204,-0.1304 1.11906,0.4513 2.30706,0.9187 -2.69479,-1.0749 2.67972,1.0686 -3.32165,-1.3271 3.03299,1.2128 0.30697,0.1218 1.20631,0.4717 1.26015,0.49 -3.14285,-1.2311 2.39645,0.9403 -0.48575,-0.1895 2.40184,0.9273 -0.40821,-0.1562 1.22353,0.4664 -1.14706,-0.4373 3.06423,1.1589 -3.39058,-1.2838 1.55312,0.5934 -0.43406,-0.1647 2.75728,1.0371 -1.12877,-0.4222 0.17557,0.066 -0.51485,-0.1938 -0.24771,-0.094 -2.80681,-1.0728 0.69255,0.2671 2.82296,1.0717 -1.44325,-0.5449 -0.005,0 m 118.36107,-481.7313 2.06903,-2.11104 3.07607,1.86334 -3.33671,-3.10839 4.34914,0.21218 -2.03025,-1.70822 2.7088,-1.40664 -2.91559,-0.52346 3.13316,0.34791 -1.86762,-1.54344 2.7088,-0.90472 -2.09056,-0.68718 2.67648,-0.57837 -1.9807,-0.44482 2.42444,-1.38833 -2.58062,-3.20639 2.54939,0.89503 -2.95437,-2.32214 4.1499,-0.33281 -0.90364,-2.61402 2.35014,1.21707 -1.76101,-2.5117 2.29845,1.06953 -1.33124,-1.17075 2.51816,-0.53532 -2.19827,-1.70714 2.89621,1.06954 -0.19818,-2.53756 -2.80251,-0.89935 3.50044,-0.51698 -2.14982,-4.75197 2.52787,0.92303 0.79702,-3.4552 4.71644,-0.34681 0.6947,-4.76706 1.91501,0.59346 -1.61451,2.66141 1.66405,0.68287 -0.25096,-2.10028 0.7658,1.42064 3.66737,-1.70498 -0.94028,-1.88377 2.94038,0.57515 3.11701,-8.22872 2.71848,-1.70821 -1.88269,-3.96789 2.79282,3.03839 3.70292,-0.71517 -0.11417,-1.72868 1.59943,1.08674 6.59589,-3.55643 7.1549,-9.71937 -7.33046,-0.49544 -3.91402,3.3281 -2.82405,-0.50837 4.00667,-2.67864 -5.85382,0.87672 1.9301,-4.24145 2.66247,0.8638 2.32752,-2.30921 -6.56358,-0.56869 2.04748,-1.19553 -2.4363,-1.32694 8.44306,2.41692 4.14559,4.40624 1.10182,-2.61294 0.88966,2.17242 1.82669,-0.70547 -2.75189,-2.54293 0.31451,-2.63448 -1.57681,0.49113 0.77978,-1.74698 -2.22735,1.0846 0.6667,-1.83962 -4.90709,-1.94301 -1.22891,1.97424 0.0549,-1.60696 -2.06795,0.37912 3.20317,-1.07921 -1.79977,-1.49064 -2.1972,1.92469 -2.01409,-1.47234 4.10143,-1.93007 -4.95877,0.44266 2.37061,-0.97365 -2.16059,-1.13954 2.81113,1.02967 1.95594,-1.83746 -2.62586,-2.04964 2.95652,1.81053 0.13247,-1.55418 3.73954,0.37588 -3.42504,0.3102 3.81171,1.68775 3.09331,-1.98179 -0.60315,-2.04426 -2.88328,-0.52451 0.65592,2.25534 -1.95164,-1.94732 -0.4168,-3.00498 4.87583,0.99735 0.56653,-1.55419 -3.79878,-0.0506 -0.14432,-2.24028 -3.16762,-9.7e-4 2.9856,-0.72594 -3.77509,-1.19123 5.42944,1.14708 -0.93273,-3.11917 -4.34485,-0.38882 2.71203,-1.69422 -3.14931,0.42437 -2.2726,-2.22843 6.07677,-2.02164 -1.38511,-2.50631 -4.07989,-0.16802 2.13258,-1.55743 -2.8499,-0.88318 -0.74963,2.00117 -0.73132,-2.34045 0.77548,-10.17064 -2.46108,1.86437 -0.98551,-1.63281 3.68246,-3.09654 -5.32819,1.05659 5.58884,-3.17085 -0.73671,-4.37716 -3.8074,0.16694 -0.2014,2.65387 -2.78528,-0.14756 -1.60803,5.76117 -1.01676,-7.67403 -3.3561,3.95173 0.67209,-3.047 -7.2163,1.66621 1.06414,-1.92146 6.2017,-0.66455 2.3803,-2.76158 -4.28885,0.0495 -0.0571,-1.94086 -8.05638,2.98022 1.43356,-2.25751 5.94536,-1.47126 -9.1356,-0.16157 -0.6247,3.79017 -3.50691,-2.6431 -1.48955,1.58543 3.79554,1.14707 0.2111,1.74267 -4.63243,-2.20796 2.49771,2.79066 -2.06795,-0.22834 -0.0291,2.46755 -4.98463,-4.21238 0.0958,4.53441 -2.60217,-2.25428 -1.5725,1.65005 0.87781,-3.5069 -4.80799,0.57408 1.18153,3.80416 -1.23646,-2.95329 -1.98072,-0.1174 -1.86546,3.66953 -1.06305,-1.38401 -0.8498,2.24458 0.0582,-2.00548 -5.40145,2.50955 -0.4179,1.49495 3.49074,0.55254 -5.13002,4.12728 -3.5866,-0.76256 -7.34122,2.19181 2.08948,4.97492 4.3513,0.70224 -0.9758,1.69314 -3.7277,-1.38724 3.0664,1.99148 -6.58622,-2.06365 3.26996,3.42612 -3.09224,0.47175 0.46422,2.10026 2.36844,1.84393 0.0786,-1.94948 1.7373,1.88593 3.84402,-0.94027 3.07392,2.02487 4.25222,9.89277 -2.78957,2.00979 2.42983,-0.52883 -1.43463,6.62282 1.75559,3.53598 -2.65494,-0.24234 1.65652,0.75395 -1.79977,2.2155 2.17996,-1.4314 -3.80847,2.5203 3.55536,1.99795 2.0238,-4.90062 -0.35543,3.61568 3.20748,0.29727 -3.07284,1.39157 3.4315,0.12385 -2.82082,1.42925 2.29414,-0.47174 -1.71683,0.85841 2.58063,0.8778 -2.15627,-0.3188 2.16166,4.26406 -4.52258,-3.12346 -3.73738,0.0829 3.99372,4.10682 4.64751,0.58269 -3.01469,4.53226 2.68512,0.47175 -1.23324,1.51326 -1.42063,-1.57358 0.30804,3.71262 -3.57153,-1.29571 -3.33672,1.4982 6.57113,-0.2305 -1.8967,1.62099 2.37382,1.85576 -6.88993,-2.50631 2.71957,1.77821 -2.63664,-0.8401 -1.94947,2.97807 5.71918,-2.11965 -1.82024,0.80995 4.96308,0.32311 -9.25945,1.35387 5.72455,1.2343 -6.27602,0.17879 3.70186,2.43092 -3.4552,0.66024 2.57632,1.11152 -3.01252,-0.42543 1.06519,1.28061 -1.87407,1.06414 8.07039,-4.00989 1.41417,0.93596 -9.07205,3.61462 4.54949,0.38989 -4.20913,1.32908 1.39585,2.46539 3.87635,-2.10456 1.88483,1.08458 -6.08106,1.38942 1.62851,0.20786 -1.29246,2.93821 2.81865,-0.80994 -2.8445,1.49711 -0.15618,2.98883 4.39008,-2.75188 -0.40065,-2.96298 2.7831,5.63516 -3.17407,-2.03672 1.70929,1.28171 -4.64643,1.03828 4.63241,0.83256 -4.36746,0.0366 1.84716,0.90795 -2.12935,1.27201 2.98238,0.46529 -2.36738,1.06522 3.06316,0.69684 -2.79066,-0.0571 2.94468,1.05551 -1.37003,2.56125 2.25213,-1.44433 -2.41583,3.17624 2.90159,1.68345 -1.61343,1.68881 2.77558,-0.37804 -2.2629,1.40556 2.1821,-0.87888 -1.34199,1.62959 1.74159,0.57622 -2.14657,0.39421 3.11592,0.33927 -2.68295,0.61501 3.58983,0.75931 0.42329,3.21718 8.00793,-1.83962 -3.51661,2.59571 2.82729,-1.43572 -2.1412,2.5494 2.59463,-1.06306 -0.16586,2.27475 2.01948,-1.84392 -2.0561,3.47781 2.49231,-2.39644 -0.99627,3.32595 m -62.24854,-23.16213 -3.07932,-12.80836 2.25644,3.31519 0.51376,-2.43955 5.04601,8.99021 1.80192,-7.01595 0.72917,3.83431 1.54557,-4.25114 -1.93007,-2.67218 1.94839,-0.22295 -0.5827,-2.84558 -2.2058,0.83471 0.23911,-2.69478 -0.99413,1.74159 1.12337,-5.69979 -2.88006,0.55577 1.52188,-3.63399 2.76697,1.28491 -0.17664,-3.99265 2.68833,1.12446 0.46745,3.25918 1.93117,-1.16322 -2.09489,2.14764 4.70352,-1.17829 -4.32762,2.58493 2.76803,6.28248 2.53539,-5.92059 1.28279,2.5774 0.65592,-3.39705 2.12934,1.4788 -1.55957,-2.4923 3.27318,0.95535 -0.92843,-2.07334 2.31029,0.26819 -0.90365,-2.60648 -2.60325,1.76422 0.47176,-1.80514 -2.68834,0.26927 2.89944,-2.46648 -2.67326,1.93332 1.54988,-1.64573 -3.41103,0.43512 2.42338,-0.90903 -1.68022,-1.12445 1.88162,0.71194 -0.15725,-2.95114 -2.01518,0.44697 2.0098,-1.48849 -2.40291,1.70174 -0.0237,-2.40721 -1.51433,1.8827 1.37001,-2.29951 -1.67482,1.12766 1.09643,-1.88483 -1.4788,0.73023 0.50839,-2.33614 -2.03888,-0.29187 3.10515,-0.0872 -4.72504,-3.93665 3.32273,1.35278 0.17124,-2.24243 -2.18965,0.33066 2.63556,-0.6247 -1.55636,-1.39262 4.27808,2.62586 -0.26927,-1.93332 -5.50268,-2.40183 6.26093,1.09751 0.61178,-1.37648 -0.78734,-2.4126 -5.76333,2.31243 4.4267,-2.08518 -3.45736,-0.15509 5.15804,-1.23324 -1.40988,-2.17674 -3.25378,0.90905 2.70987,-1.66622 -5.85489,3.18594 2.39107,-2.37167 -1.92146,0.0453 4.59795,-2.25104 -5.0514,0.81639 4.7326,-2.28659 -1.202,-2.93067 -4.3847,2.06795 2.97376,-3.41319 -4.61089,1.85253 2.45462,-2.02378 -1.18262,-0.69147 3.28934,-0.96504 -4.375,-0.68179 4.35561,-2.08949 -2.8262,-3.10516 -2.76265,0.75502 1.286,2.64526 -2.60323,-1.95595 -0.0548,3.23118 -0.27036,-5.22696 -4.31575,1.87946 4.59472,-3.29687 2.17566,-5.51668 -6.31157,-1.18907 0.27251,2.59785 -2.40831,-1.71252 0.92197,2.6388 -1.71253,-2.22628 -1.79761,5.32605 -0.40065,-2.12935 -2.24568,0.31665 0.54606,3.14717 -3.52196,2.86928 0.85088,-1.43572 -7.05582,-4.05189 -1.74267,3.30873 0.17879,2.11211 3.52843,0.2671 -1.44972,2.89405 6.0326,4.69276 -0.26172,-3.27966 1.05013,4.80154 0.38343,-2.76266 4.00343,3.96572 0.50514,-3.06531 2.35336,-1.04151 -1.30862,5.83657 2.04103,-0.61499 -1.64574,1.52834 1.93438,0.72163 -0.44159,2.70235 -3.97541,1.7556 3.45089,-0.60854 0.64839,3.65553 1.63389,-0.25096 -1.49603,8.52491 -3.44765,1.82239 1.73621,1.42817 -2.07333,-1.18476 -4.892,1.60697 -0.19926,4.73259 -5.99167,-1.21169 -2.6194,-2.88652 -5.24635,4.6766 8.02839,4.0842 1.40771,-2.90159 0.44591,4.18112 1.82668,-1.56174 -1.08352,5.03418 2.77665,2.79281 -2.76911,-0.0797 0.24665,2.17242 11.6753,11.91549 -0.005,-0.0118 m 50.48385,-111.09416 -5.17204,-0.0259 -1.46372,3.14069 -1.15137,-3.49397 -2.34582,0.33388 0.0248,2.13474 -1.04906,-2.34584 -4.6669,-0.20357 1.28817,1.24078 -1.88054,0.47713 2.69049,1.0663 -4.01096,0.51698 4.82413,1.39156 -5.09878,-0.92088 -0.0592,2.00978 6.36435,0.36835 -4.07129,-0.0442 -1.67805,0.74424 3.57044,0.19711 1.04044,0.76578 -2.29305,0.43514 2.23705,0.56329 6.51511,-1.53372 -3.98619,1.48741 2.05934,1.04906 -7.8356,-0.77549 -1.09536,4.33085 0.26711,-4.31253 -1.89347,-1.5682 -3.06315,6.47096 -1.36786,-0.62147 3.11055,1.61882 -2.57956,-0.10986 -0.35328,1.62851 -0.95535,-2.97052 -2.42338,-0.33711 -3.47674,1.96562 2.76265,0.0215 -0.96504,1.34417 3.05237,-1.43033 -5.05246,4.16282 4.97708,-0.727 -5.66533,1.84392 -1.08675,-4.6669 -1.62313,3.69108 -5.94427,0.19172 0.24234,1.46586 1.95486,-1.31722 -1.23863,2.2952 1.46589,-1.09322 -0.45668,1.74483 1.47127,-1.1406 -0.20572,2.43416 2.71418,-0.89827 0.16587,1.76745 1.30754,-1.5822 -0.33604,2.29414 1.33124,-2.12288 -1.04365,4.04327 4.5387,0.29512 2.57309,-2.11642 -3.52736,-3.08578 2.00979,-2.22088 1.9721,3.48104 3.23871,-2.53862 2.47508,1.30001 -0.13894,-1.64251 2.46215,0.45129 -0.99305,-1.67268 2.41692,0.72917 -2.53755,-4.1542 4.30499,2.26828 -2.3609,-3.07178 5.36805,1.47988 0.30482,-2.04963 2.1498,1.84607 2.22197,-1.2537 -1.40342,-1.27954 2.05827,0.97151 0.56437,-1.88809 0.61717,1.29247 7.59647,-3.17515 -5.78487,-0.15834 4.31361,-0.89181 -1.67912,-1.63066 2.67756,1.37325 3.94849,-0.86271 1.92039,-1.38512 -0.75071,-2.65278 -4.35884,-0.25742 2.57955,-0.81318 -6.55498,-3.67385 -0.071,-0.008 m 180.39749,157.16638 3.1621,-4.49026 -0.7129,-1.40448 -3.884,1.60913 1.6889,-1.86654 -0.5095,-6.40527 -2.9662,-1.74914 -3.7051,2.32106 -0.068,0.1271 -2.2081,-3.71048 -1.036,-0.23911 -1.8257,0.63331 2.1122,-1.62635 -1.4476,-1.86546 -4.9275,-0.80456 -7.1959,-6.09184 -5.6891,1.30216 3.1839,-2.60863 -2.6507,0.46851 1.8181,-2.21981 -1.5035,-6.8027 -6.9804,4.2587 0.1506,-8.30627 -5.4379,2.64741 2.3964,4.61841 -2.2532,0.74426 3.5855,3.67275 -1.3162,3.26457 3.6922,-1.52941 1.9397,9.11836 -0.183,-3.8074 0.5882,-2.78635 1.9322,1.27956 -1.4971,0.40389 2.5763,6.57436 1.5896,0.87887 -0.7356,-1.36139 5.1548,-3.22796 -0.2768,3.55322 2.9382,1.82562 0.5094,-1.54236 1.2699,4.41702 1.942,0.44159 -4.3492,3.10409 -0.5612,3.25595 1.9053,-1.79546 1.5274,1.9527 -2.4633,6.10152 7.8087,-0.1357 2.1434,-4.08313 -0.376,4.71213 -3.929,1.78899 -1.7923,8.89542 6.6725,-4.17145 -0.8499,-2.99851 11.0312,-6.33311 0.011,-0.007 m -220.6028,54.68112 5.88288,-4.84675 0.73887,3.02867 -2.48586,3.69431 3.27641,-2.11103 -0.96503,3.67169 2.01947,0.41252 3.3238,-5.451 -0.43835,-1.94839 -2.39862,1.37755 2.24675,-3.79339 -3.47783,3.79124 -1.25693,-2.42444 1.64574,-1.05122 -1.28923,-1.38402 4.44072,-1.38618 -5.2582,0.24881 3.98619,-5.2959 -4.17468,-0.48789 0.47176,-1.99364 -4.47841,2.72171 1.63821,-3.03729 -4.19191,-0.002 3.46058,-2.9156 -3.05023,-0.27894 0.52345,-1.42818 -3.76969,3.34533 6.80161,-8.97082 -1.01997,-1.96455 2.34476,0.36513 -1.24616,-1.92577 -7.32937,4.71859 -3.08362,7.64603 -2.26075,-0.0548 0.7324,3.06746 -1.83961,-1.55096 -4.60011,3.42611 4.18545,0.60209 -5.69872,2.87789 0.48899,2.33291 3.91726,-0.6484 5.78703,2.92637 5.12463,-1.94192 -2.12071,2.93389 6.37616,-0.24664 -6.45696,3.62968 3.47136,0.32419 0.007,-0.002 m -62.15699,-193.29196 -2.91022,2.12935 4.7983,5.26466 6.50435,0.85194 -1.95917,4.05728 4.15422,4.15421 2.19503,-2.53539 -3.19777,0.30588 2.94791,-2.59247 0.0883,1.81915 3.36364,0.0571 -0.92303,1.59621 2.78313,-1.94194 1.13089,-7.31752 9.48781,-6.81993 1.56819,-3.13962 -1.81485,-1.29247 -8.7597,5.34544 6.46666,-6.67346 -0.61392,-0.92626 -2.50416,2.69049 0.23587,-1.54451 -1.95056,0.44268 -0.68931,-1.24293 3.21718,-0.22619 0.63976,-2.63125 -3.47458,-0.98657 4.87584,-1.99256 -7.14197,-2.7325 -4.74228,0.90904 -0.0582,2.03672 -1.89131,0.0259 2.39214,3.82786 -4.57102,-3.10193 -2.21874,1.90209 2.57632,5.01694 -0.65378,4.27054 -5.35298,-7.32831 -3.35288,2.90375 -0.643,5.41653 -0.002,0.002 m 194.61784,84.41546 4.29958,-4.07666 1.51647,-4.78213 -1.69636,-0.2402 1.73629,-0.81963 -6.81999,-4.43424 0.87671,-1.99041 -1.52723,1.85039 -2.85419,-1.56282 0.17662,2.80466 -4.38146,0.58916 1.72652,2.84451 -3.0427,-2.62479 -0.52345,3.08791 -3.33026,-1.51003 0.13249,5.7041 -2.2489,-4.73905 -5.36159,-1.47881 2.85635,3.07608 -3.29795,-1.57574 1.44219,2.88975 -2.3943,-0.33389 1.29677,1.42173 -1.929,0.5439 7.51786,-1.18261 -1.92039,2.05179 2.40829,0.49008 -5.73209,1.97853 8.12208,1.45942 -2.61617,4.1833 4.28776,-1.77393 7.47371,1.6953 3.80634,-3.54567 0,0 m 58.32801,60.38629 4.6552,-4.63241 -5.4468,-10.23312 1.6737,-4.06482 -4.4763,-3.31195 -3.034,2.83912 0.5644,-1.85146 -1.8903,-0.22833 0.4502,2.74757 -1.8903,-1.07921 -1.1685,4.12944 2.3943,-0.59562 -0.08,3.08577 -5.3606,1.83853 3.0611,1.90208 -1.0953,3.12671 4.9576,-0.48468 -1.8924,5.24742 4.0174,-2.19935 -4.6528,4.66905 2.3156,-0.31126 -1.4551,2.71525 2.8833,-1.34308 -1.44,2.42337 2.1832,-1.63821 -0.3737,2.12827 5.0945,-4.86937 0,-0.009 M 821.72942,651.3567 l 0.0894,3.68893 3.43581,-0.29943 -1.16752,2.52785 5.46175,2.96945 1.67698,-1.48742 0.36835,3.20318 4.92215,-0.10445 -0.81641,-1.286 2.82621,-1.39695 -1.05444,-2.91129 -7.81407,-1.75344 -0.9241,-3.02977 -1.40771,0.87889 1.74375,-3.05239 -2.2252,-0.28111 2.22844,-0.13572 -0.40929,-1.887 2.27367,1.9861 -1.18907,-2.57633 1.47449,-0.36188 -3.76432,-1.03506 2.60756,-2.0184 -2.28443,-2.67218 -2.80896,3.74277 2.78524,1.40772 -5.99165,5.85166 -0.0366,0.0323 m -17.42139,-22.84546 3.62105,0.45882 -2.53108,1.13523 2.8262,2.40075 -5.24311,-2.07441 -0.61393,2.91237 5.93459,1.99147 1.69851,2.87682 5.04279,-1.8073 0.51376,-1.69636 -2.6291,0.93812 0.085,-1.50251 5.54792,-3.83217 -3.51874,0.0183 -4.38147,3.79555 -1.09645,-2.42446 4.43209,-6.01214 -1.82022,-0.45128 -0.23696,1.50788 -2.46539,-1.48849 0.72163,1.9624 -2.91019,-1.75561 1.59403,1.98718 -3.80201,-1.73945 -0.78087,2.7928 0.0118,0.007 m 36.17081,6.8684 -0.25741,3.16225 -1.53481,-0.55685 -0.63654,1.59513 1.92794,1.93008 1.86331,-2.0281 -1.33233,2.44062 4.70568,-2.73681 -1.22247,1.65975 5.30451,-0.80457 0.91334,-1.80407 -1.8267,-0.63223 4.03791,-3.32272 -2.12504,0.81102 3.11485,-7.20335 -4.18546,0.74531 -0.47928,1.91826 -2.68187,-1.10076 -0.56545,2.52354 -0.57838,-1.91501 -1.41526,0.87027 0.92734,1.77606 -3.18053,1.13307 3.41749,3.12132 -4.17898,-1.58544 -0.0118,0.003 m 128.18057,5.96366 3.44666,0.14434 -8.41293,-7.56525 -0.20248,-2.81112 -6.89425,-0.41575 1.04044,1.21278 -4.68628,-1.32371 6.3848,3.54998 -5.94966,-1.73406 2.28552,2.17995 -2.86391,-0.0259 -0.51052,-1.88915 -0.56976,3.01467 8.64123,3.24733 -1.57789,-3.81384 2.13904,1.26121 -0.54607,-1.6522 2.139,0.35221 -0.90793,3.95495 2.05289,0.94026 1.26554,-2.96083 -0.29194,2.60218 2.12072,-0.35759 -2.12503,1.41526 4.02281,0.67422 0,0 m 32.99895,-36.72873 -3.39701,-0.38127 0.53093,-0.95535 -6.21135,-2.8736 -8.50989,-7.2949 -4.60542,-0.0861 5.50482,3.56936 1.53479,3.57476 8.19319,5.96904 3.05557,-0.60745 3.13417,2.48045 1.146,-1.24507 -0.6926,1.41956 2.487,1.9581 0.5848,-2.38783 2.1724,2.44599 0.1692,-3.06315 -3.0278,-0.0991 0.3997,-1.34308 -1.3333,0.95427 0.4275,-1.3948 -2.587,0.0744 1.0243,-0.70979 0,-0.004 m -306.12237,375.43318 4.7843,-0.0255 -7.38754,-6.1586 0.69147,-2.5537 -5.64162,-3.85046 -11.39204,-16.55221 -5.71487,-5.18388 -13.70879,-4.73367 -2.35338,3.45627 -3.15361,-1.08351 4.05083,2.31352 7.02024,-1.20631 3.97005,2.49878 0.6613,1.65759 -2.47508,-0.77979 1.23216,2.22197 13.37382,10.9041 1.61989,6.66917 4.26191,2.73251 0.18527,2.1218 -3.75895,1.52939 13.73464,6.02295 0,0 m 17.8307,19.74568 3.02222,-1.56059 10.77381,5.33795 2.14873,-1.7644 -6.60774,-5.36266 2.80787,-0.38884 -3.21716,-1.04365 -0.74102,-2.80786 -14.79877,-7.54697 -3.61138,0.19065 3.65446,3.02875 -1.12444,2.21976 1.87838,3.99915 -9.53951,-4.93184 -1.66942,0.86057 2.63232,3.73305 9.83569,2.74536 2.66895,5.06103 1.88378,-1.76524 0.003,0 m 157.5401,-483.9326 3.73846,-0.25849 -2.8962,0.19709 -3.06422,0.23372 1.51433,-0.11847 10.39038,-0.64732 4.27162,-0.18201 -3.9442,0.16694 -4.29637,0.22834 9.08713,-0.2865 2.76373,0.91442 1.71683,-0.11094 -2.2069,-0.21433 3.90865,-0.2348 0.40066,-0.35327 -2.76912,-0.17987 -18.60292,0.84441 -0.0118,9.8e-4 m -71.08902,143.01491 5.79781,-3.25271 -0.7044,-2.98883 5.47898,-1.10075 -3.201,-4.26299 -1.98825,1.92792 -0.59992,-1.56173 0.13786,2.92744 -2.68296,1.06305 -0.23479,-3.28932 -2.63879,0.83472 -3.9108,8.666 1.51435,0.92734 2.45569,-1.79114 -1.28493,0.96504 1.83639,0.94459 0.0248,-0.008 m -11.58374,56.40227 3.21501,-0.671 -0.39205,-2.71957 -2.8639,-0.58053 2.60109,-2.66249 -1.64359,-7.86144 -1.89562,0.78086 1.66083,-4.20267 -8.94066,8.00468 -4.16821,1.13954 3.57798,1.35171 -1.57357,3.61029 9.03651,-2.44492 -1.01891,3.2678 2.37923,2.98667 0.0259,9.8e-4 m 234.65302,-101.66346 -0.6419,-4.98676 -6.7779,1.87946 -4.2134,-0.66347 -3.8688,-2.39968 -0.3404,1.96671 0.8821,2.09163 1.592,-0.19063 1.2203,1.78147 0.3263,-1.53483 5.2646,4.00343 2.3232,-0.11632 -0.7054,-2.25645 4.9189,0.43623 0.021,-0.0108 m -311.42358,-17.975 0.12495,0.65916 -1.65006,0.0259 0.96182,2.04749 1.52619,-0.92842 -1.33986,1.44001 2.07225,-0.52883 2.18536,-2.23597 -1.62206,0.0453 1.74807,-1.03182 -3.34642,1.20952 2.82189,-2.2209 -1.05444,-0.21756 -2.42338,1.73299 -0.004,0.003 m 247.94939,28.34707 -3.37442,0.40389 0.55253,1.78361 -2.45569,-0.92304 2.7928,1.82131 -4.4547,0.11417 2.03456,1.12553 -1.01674,1.16537 2.89513,0.63977 1.20953,-2.20581 1.04906,2.09702 3.59305,-1.67266 -2.81327,-4.34916 h -0.0118 m -145.1658,20.2573 1.9904,1.79222 2.64849,-0.65378 5.9195,-5.43374 -2.04963,0.49329 -0.86919,-2.01626 -2.67003,2.97483 1.68774,-3.59199 -2.82296,2.88652 -2.51924,-1.20415 2.88114,2.76481 -2.7982,0.0538 -1.43787,1.89993 0.0399,0.0345 m -30.26962,-14.51335 11.52559,2.51923 3.38089,-4.29421 -2.12613,-1.13954 2.80036,-3.77723 -1.99254,-3.31411 -3.58446,2.20797 -11.57298,0.52022 0.12494,1.44864 -5.06002,4.16067 3.28501,2.41475 3.2021,-0.75608 0.0172,0.009 m -131.76398,56.12008 1.57035,1.42171 -2.74972,1.15892 -0.50516,6.08968 8.43984,-12.73944 1.61558,-9.53303 -1.69529,2.16165 0.9338,1.14492 -2.57307,0.30264 0.31234,2.11965 -5.34545,7.8733 -0.003,0 m 30.57227,-36.48209 -1.70606,1.83961 3.07715,-1.5305 0.63331,-2.05717 0.50946,1.13198 5.10956,-5.84625 -4.10145,2.44168 -0.0281,1.0889 -1.76636,0.16262 -1.73191,2.7659 0.004,0.003 m -11.31557,7.05902 1.14275,0.24988 0.72595,-2.08949 4.94908,-1.02427 -3.14071,-0.34035 2.35016,-0.5116 1.04905,-2.72604 -5.92706,4.37608 -4.99969,6.6616 3.82893,-4.58289 0.0215,-0.0129 m 230.80898,-106.67548 -9.59764,0.21974 2.25211,2.29196 -1.88055,-1.88807 -3.12562,1.41741 6.73162,1.70928 1.23645,-1.68236 2.84237,1.75345 3.02114,-1.70283 -1.47988,-2.11427 v -0.004 m -92.35552,292.65158 -1.34523,-2.63447 -3.15256,3.39811 -1.63282,-0.29727 4.17791,-2.91559 1.25261,-4.72936 -6.5302,5.13864 0.27035,3.40026 6.95348,-1.33554 0.007,-0.0247 m 9.02145,-220.61798 -1.45619,-1.75345 -9.48241,-0.75932 2.13041,1.244 -1.82775,1.74376 6.55389,-0.0151 -3.01038,1.81808 6.88348,-0.53854 0.21756,-1.74267 -0.008,0.003 m -5.6621,51.49628 1.51435,-4.10897 3.02115,-3.30442 6.61206,-3.19994 -1.70069,-1.93871 -6.39772,0.4933 -9.35101,6.33095 3.09331,4.07666 3.20426,1.6479 0.004,0.003 m 255.75038,67.68767 -0.7765,-4.39869 -3.1794,-1.9861 1.5499,2.80681 -2.095,-1.06628 -1.1189,2.86281 7.6093,3.90649 -1.986,-2.12827 0,0.003 M 948.91186,575.0287 l -3.47136,-2.32214 -3.81063,1.96241 0.0344,1.25586 1.92901,0.0421 -1.41418,0.69901 6.73591,1.26446 9.9e-4,-2.89837 -0.004,-0.003 m -117.78592,60.5554 4.26299,-3.88601 -0.003,-5.06001 -2.92421,1.79545 0.58485,1.42279 -3.36904,0.46528 1.73407,0.90042 -0.28759,4.37177 0.002,-0.009 m -133.79854,1.19984 2.81004,-3.09008 -1.53804,2.39323 1.43679,-0.36405 1.49603,-3.54674 -4.8069,3.07391 2.11103,-0.88319 -1.50465,2.41046 -0.004,0.007 m 105.99106,23.39045 4.15207,-0.16478 0.71408,-2.15305 2.39429,2.33291 8.02839,-2.87574 -5.22696,-5.0471 -10.09096,7.89699 0.0291,0.0108 m 168.13517,-27.67391 -4.32982,-0.9252 -0.48789,1.96348 3.81925,2.0421 0.087,-1.82562 2.27799,0.97366 -1.36459,-2.23381 0,0.005 m -208.47312,124.24612 2.69265,0.28112 -0.82181,1.07813 2.83806,-2.49015 -1.9247,1.55095 1.87084,-3.33025 -4.66581,2.91235 0.0108,-0.002 m 108.47369,-52.73489 -2.00764,-4.08527 -3.25271,-0.59453 -0.94782,3.44228 3.22365,0.65268 -1.59405,1.6156 4.56671,-1.02105 0.0118,-0.009 m 306.66407,106.8398 3.1202,-4.40409 -0.7227,-2.15626 -0.3888,2.65171 -6.8468,4.23283 1.3247,2.08088 3.5102,-2.40723 0,0.002 m -572.44742,238.26449 1.13199,-0.3102 -2.42014,-6.543 -0.95859,0.1099 2.16488,4.7659 -1.78683,0 1.86654,1.9774 0.002,0 m 139.94746,187.029 1.4594,0.5836 -3.55859,-1.9085 -2.07549,-0.8929 0.58161,0.4039 1.54988,0.9047 2.03673,0.907 0.007,0 m -58.39697,-587.02547 -2.07658,0.44481 -0.28648,1.01677 1.33878,-0.45453 -2.00657,0.78195 0.53099,0.82932 2.49986,-2.61832 m 261.6711,-78.57349 -7.43062,-1.54343 -0.88103,2.38353 2.81112,-0.15834 -2.37707,1.40558 7.89591,-2.08734 -0.0183,0 m -2.73788,7.78604 -3.90111,-1.36355 -2.59893,0.55038 -0.88642,2.56446 7.86683,-0.0452 -0.4836,-1.70498 0.003,-9.8e-4 m -253.1365,359.89787 0.80348,1.3614 1.97532,-3.84293 -1.98394,-3.50259 1.4508,3.34102 -2.24566,2.62372 0,0.0193 m 425.07364,-103.24995 3.0168,-4.62812 -3.3207,-7.40585 -4.336,-2.6377 -2.4074,4.33407 7.0559,10.3516 -0.01,-0.014 m -321.13,4.17574 4.69813,-1.85253 -8.25566,-2.36199 0.97474,-3.73524 -2.46215,2.31353 5.0374,5.61361 0.007,0.0225 m -114.08085,148.36576 4.1876,1.53047 -2.97914,-4.60983 -7.22597,-3.22145 2.3469,4.43425 3.66954,1.86333 9.7e-4,0 m 36.78583,-414.57773 0.45989,0.98443 1.63282,-1.46587 -1.9527,0.76041 1.19016,-1.83208 -1.32802,1.54772 -0.002,0.006 m 476.01841,213.35215 0.2801,-5.50053 -1.3754,-0.84763 -0.6117,-4.37287 -1.3723,10.48085 3.0782,0.24664 0,-0.007 m -429.84924,277.37241 0.67207,-3.9171 -4.46439,-0.3599 1.09321,2.6755 -2.95437,0.6613 5.65348,0.9251 0,0.015 m -76.77051,-113.76533 -1.32586,-0.75609 1.16214,-1.36464 -1.4788,0.36297 0.74102,2.65495 0.9112,-0.89288 -0.009,-0.004 m 138.72391,-280.09201 0.14111,1.83099 5.521,1.9344 0.54391,-4.24576 -4.08852,-3.47028 -2.11211,3.94742 -0.006,0.003 m 207.78145,-45.57244 -2.2693,-2.69589 -2.4945,0.87673 2.5042,2.28982 2.2608,-0.46313 v -0.007 m -229.24194,196.53606 1.1083,-1.32048 -2.76913,-3.06314 -6.64865,-3.36796 8.30196,7.75481 0.007,-0.003 m 360.73236,-34.97745 0.6009,-1.08352 -1.8741,-1.04258 -0.5881,2.14441 1.8601,-0.0193 0,9.9e-4 m -469.77244,161.29258 -0.60531,2.35984 0.99412,-3.05347 -2.27799,-4.0045 1.89455,4.69382 -0.005,0.004 m 69.54345,-382.63864 -0.19496,1.2957 7.94438,-4.28777 -1.86007,-0.10879 -5.89798,3.10086 0.008,0 m -72.83493,76.01009 -3.15576,2.16381 0.0495,1.11044 2.49017,-0.90472 0.63546,-2.3943 -0.0193,0.0248 m 47.6501,369.36618 2.51492,-1.7923 -9.27022,-2.7938 0.014,2.7141 6.73701,1.8742 0.004,0 m 320.5861,-267.99681 1.6327,2.11857 2.1155,-1.09968 -2.6238,-2.58493 -1.1202,1.55742 0,0.008 m 104.4844,54.71128 -2.9372,-2.62156 -3.3303,0.5116 -0.4512,2.25644 6.7122,-0.13787 0.01,-0.008 m -158.9651,-41.72413 0.8003,1.28708 0.8207,-1.81808 -1.1696,-3.52304 -0.4471,4.05188 0,0.002 m 5.2195,-79.94675 -0.5363,-4.22422 0.239,2.18644 -2.1153,-1.40557 2.4028,3.44119 0.011,0.002 m -325.63641,271.99363 1.77391,-1.6113 -1.2957,-4.18974 -2.19073,3.05131 1.70821,2.74865 0.004,9.7e-4 m 242.7989,-260.24293 4.13267,1.02213 -3.18271,-3.29579 -2.57739,0.43405 1.61774,1.84069 0.009,-9.9e-4 M 670.422,664.65387 l 0.76795,0.1314 -2.11534,1.99363 4.56133,-4.11759 -3.21286,1.98932 v 0.003 m -10.84273,286.3928 2.29198,0.64086 -0.21326,-2.25752 -1.28494,-1.13306 -0.82394,2.73142 0.0301,0.0183 m 341.50691,-360.79807 -2.06689,-0.3059 1.02639,1.39802 2.3028,0.0958 -1.2559,-1.17723 -0.01,-0.0108 m -202.20241,55.29612 3.85047,-1.29785 -0.91657,-2.58709 -1.70822,0.22188 -1.25585,3.64475 0.0301,0.0183 m 87.81788,-94.91351 -3.44335,-0.41145 -2.85205,1.43141 7.83775,0.52991 -1.54127,-1.54665 -9.9e-4,-0.003 m 6.43757,-5.21513 -0.89395,0.71088 2.82082,1.09104 4.16173,-1.3754 -6.07997,-0.42652 h -0.008 m 204.59791,300.50765 0.6279,-3.40135 -1.6846,-0.85518 -2.1626,4.0745 3.2193,0.18527 v -0.003 m 14.2666,-26.26943 -0.3736,-4.93616 -3.4337,-4.71751 -0.6291,5.7224 4.4364,3.93127 0,0 m -329.40284,-152.42 0.72918,5.03416 3.98725,0.0711 1.73084,-7.57063 -6.45481,2.46107 0.007,0.004 m -86.28415,-27.86132 4.16929,-2.20904 1.62635,-2.32429 -7.83127,4.10035 2.03455,0.4373 9.8e-4,-0.004 m 450.10343,191.27249 -3.2344,-10.3753 -8.7683,9.90463 1.987,2.06687 10.0103,-1.59189 0.01,-0.004 m -400.75376,-259.54068 3.02115,-1.01673 1.50787,-2.13473 -4.6238,2.3049 0.0915,0.84764 0.003,-9.8e-4 m -27.73207,6.77684 -1.59189,1.71359 3.02223,-1.73727 0.2294,-1.80623 -1.65651,1.82668 -0.003,0.003 m 99.64397,120.47749 -2.14873,-2.78743 -4.31254,4.78214 3.67923,1.00383 2.7422,-2.97376 0.0399,-0.0248 m -36.03942,17.32123 -3.65015,0.69363 -0.82071,1.96994 7.21951,-1.4885 -2.74111,-1.17614 -0.007,9.8e-4 m -16.09016,313.09206 2.70557,-0.8445 -1.5402,-2.0356 -2.11964,0.6818 0.95319,2.2026 9.9e-4,0 m 59.26078,-402.01498 -1.34634,-2.67219 -2.47938,0.88319 0.31127,2.29951 3.50045,-0.51915 0.014,0.008 m 123.4857,-48.65608 -1.7319,0.0281 1.49388,1.80299 1.6382,-0.85411 -1.39479,-0.96934 -0.005,-0.007 m -114.95757,59.79608 3.54352,-0.89504 -0.0431,-3.70508 -4.0325,2.7745 0.50298,1.81161 0.0291,0.014 m 434.08638,328.50144 0.077,-1.006 -0.4297,2.62592 0.1723,0.19604 0.1788,-1.81273 0,0 m -239.7929,-360.0603 -1.5056,-0.87027 -2.376,1.86331 2.6226,0.5687 1.259,-1.56174 m 43.5142,95.57807 -0.364,1.17184 1.8461,0.11202 0.2326,-1.72437 -1.7147,0.44051 m -324.88236,-128.60281 1.69744,-0.88749 -0.0259,-1.14707 -1.51649,0.7324 -0.1551,1.30216 m 268.76671,188.08116 -0.019,2.21658 1.6221,-1.55634 -1.5984,-0.66132 0,9.9e-4 M 825.60044,623.4286 l 2.87467,2.57848 1.03183,-1.8407 -3.90973,-0.75178 0.003,0.014 m 105.30607,59.47725 -3.52306,-1.25584 -1.71791,1.6242 5.2345,-0.36728 0.007,-9.8e-4 m 302.78239,56.39366 -0.8595,-2.0475 1.762,5.49085 -0.8993,-3.4272 0,-0.0161 m 22.7312,115.37763 0.5225,-1.51651 -1.0802,0.24666 0.5534,1.286 0,-0.0161 m -137.4368,-66.30904 -1.3818,-0.26603 2.8401,0.92087 -1.4561,-0.65484 0,0 m -534.58889,27.15035 -0.2768,2.0561 1.27954,-2.34367 -0.99951,0.28434 -0.003,0.003 m 428.40826,-58.06955 -2.893,-1.06737 3.6416,2.55586 -0.7454,-1.48741 0,-9.9e-4 m 57.8337,-35.54719 2.9017,4.56242 -3.9443,-6.88887 1.0415,2.3189 0,0.007 m -59.0302,-48.17678 -1.9851,-1.99147 0.5989,2.35121 1.3797,-0.36081 0.011,9.7e-4 m -54.4852,-34.5897 2.59032,0.35651 -4.86938,-1.40664 2.27367,1.04798 0.006,0.002 m 199.18659,168.38284 1.5166,-0.95643 -1.9549,-1.20091 0.4329,2.11319 0.01,0.0441 m -403.07576,431.99482 -1.09858,-0.4814 -1.18262,-0.4835 2.27797,0.9639 0.003,0 m -49.2183,-272.29097 0.004,0.0108 1.04259,-1.44436 -2.91235,2.45573 1.86545,-1.02215 m 14.94525,-361.69312 1.81376,0.0205 -2.50523,-0.77008 0.68393,0.75286 0.007,-0.003 m 244.13875,3.90865 -2.35335,-3.1827 -2.60541,-0.20249 4.95876,3.38842 v -0.003 m -281.10229,39.00456 -0.90687,1.22568 2.89836,-2.42985 -1.98288,1.19232 -0.008,0.0118 m 393.51572,58.99581 -0.5676,-4.86291 -2.4342,2.77449 2.9782,2.0895 0.023,-9.8e-4 M 714.75991,596.9919 l 0.64623,1.38079 1.49818,-1.92146 -2.13472,0.53636 -0.009,0.004 m 106.12462,-39.81666 -4.09175,3.82032 4.96631,-1.57142 -0.87456,-2.24998 0,9.8e-4 m 209.63828,395.54289 2.2426,-4.48381 -3.8591,2.54402 1.608,1.93332 0.01,0.007 m -19.4765,-286.25063 -1.4282,0.0699 1.9398,3.00607 -0.5105,-3.07284 0,-0.003 m -177.68102,464.26045 2.25859,-1.8268 -4.83168,0.1121 2.56232,1.7147 0.0108,0 m -10.80073,-387.35209 1.45294,-1.22785 -2.14657,-0.56222 0.68932,1.789 0.004,9.7e-4 m 12.45294,-196.17847 0.003,0.82394 2.91668,-0.69255 -2.91668,-0.13355 -0.003,0.002 m -96.01538,308.59848 5.93676,1.78038 2.52354,-1.53157 -8.45599,-0.25204 -0.004,0.003 m 78.33761,-208.43109 1.4131,4.02713 3.85156,-4.38255 -5.24958,0.3565 -0.0151,-9.7e-4 m -125.24024,-6.09291 1.64143,-1.3431 -5.15372,2.67326 3.51445,-1.33447 -0.002,0.004 m 0.86163,-2.58817 -3.36255,2.26614 7.93468,-5.19034 -4.57319,2.91774 9.7e-4,0.007 m 109.7737,-107.94808 2.91667,-0.63331 -4.5915,0.87781 1.66837,-0.24342 0.007,-9.8e-4 m 463.47597,282.90852 -0.5859,-3.35826 0.5653,5.16665 0.022,-1.80192 0,-0.007 m -221.779,133.58851 -0.1346,-3.61244 -2.2833,5.31312 2.4136,-1.6996 0,-9.7e-4 m -248.63635,-261.07658 -0.73779,1.56066 2.42446,-2.74219 -1.67161,1.15784 -0.0151,0.0236 m -4.49779,13.90159 1.41848,1.23215 -0.64733,-3.6243 -0.77438,2.37599 0.003,0.0161 m -44.38878,69.41634 2.91561,4.01958 0.48252,-3.55859 -3.39921,-0.46422 9.9e-4,0.003 m -85.99442,118.975 h -0.002 l -1.23,-0.6484 3.1978,1.73838 -1.96564,-1.08998 m 520.51474,-92.68188 -1.0555,-3.28394 0.022,3.21393 1.0341,0.0765 0,-0.007 m -373.54383,-171.40507 2.6474,-0.50621 -3.80524,-0.70764 1.15784,1.21062 0,0.003 m 24.68614,-103.54615 0.34144,0.014 2.3469,-0.54607 -2.6614,0.52777 -0.027,0.004 m 347.75285,514.61274 1.1665,-0.055 0.8778,-3.5564 -2.0454,3.6038 0,0.01 m -246.18953,-364.09607 2.17565,-0.72163 -2.04209,-1.7793 -0.13464,2.49985 9.8e-4,9.8e-4 m 26.82842,-69.20525 2.12503,-0.48574 -1.68343,-1.09753 -0.45237,1.59189 0.0108,-0.008 m -304.70386,489.8351 1.0286,-0.7076 -1.60805,-0.8712 0.57084,1.582 0.008,0 m 50.1295,-114.24248 1.10828,-1.75676 -3.93664,0.43082 2.82404,1.32808 0.004,0 m 41.73059,76.23854 -2.23274,-0.5159 3.75032,0.922 -1.4842,-0.4233 -0.0333,0.018 m 198.43599,-497.92488 -0.55361,-1.08997 -1.91825,0.37805 2.45569,0.70762 0.0161,0.004 m 99.49428,385.39808 -0.2888,-1.51327 -1.5423,3.04376 1.8321,-1.52511 0,-0.005 m -252.1854,-220.84202 1.943,-1.21061 -2.03886,-1.0932 0.0915,2.2995 0.004,0.004 m 206.99116,321.15385 1.7578,-0.3092 -2.0789,-1.6663 0.334,1.9614 -0.013,0.014 m -109.14644,-405.62911 1.99579,2.94144 0.15726,-2.22412 -2.10889,-0.75178 -0.0442,0.0345 m -187.14735,354.45094 -1.54987,-0.85625 2.30704,2.40836 -0.74854,-1.54888 -0.008,0 m 261.65712,-357.43331 -1.86763,-1.74376 -0.22511,1.52619 2.08305,0.21757 h 0.009 m -151.95127,52.81242 1.86546,-0.60314 -2.78528,-0.78302 0.91982,1.41094 0,-0.0247 m -30.21685,39.44401 2.73571,-0.65162 0.7841,-2.46431 -3.51336,3.09653 -0.007,0.0193 m -63.84472,312.3854 0.002,0 1.37756,1.5305 -2.12072,-2.8327 0.74101,1.299 m 317.32901,-87.0564 -1.8676,-0.57945 -0.4405,1.84284 2.3049,-1.25694 0,-0.007 m -131.13489,-434.45697 1.30862,0.22941 1.60373,-0.20357 -2.91558,-0.0269 0.003,9.9e-4 m -112.43727,38.0029 -0.15186,0.0882 -1.23539,0.94027 2.93176,-1.85362 -1.54451,0.82504 m 30.37733,78.02635 1.52619,-1.79653 -3.05884,2.86497 1.54666,-1.05551 -0.014,-0.013 m 136.40717,-32.23095 -3.3518,-1.40341 0.90042,1.56928 2.47723,-0.14863 -0.0259,-0.0173 m -209.59107,-51.49303 -1.91177,0.85517 3.57368,-1.56065 -1.64575,0.69684 -0.0161,0.008 m 82.93451,91.26339 -2.61295,-1.24185 1.40557,2.62909 1.202,-1.37107 0.006,-0.0161 m -13.84881,59.66037 -1.97639,-0.90365 1.94624,2.46215 0.0399,-1.54343 -0.009,-0.0151 m 351.84437,358.0074 0.2725,0.9253 1.0826,-2.1337 -1.3551,1.2042 v 0 m -241.66246,-381.11687 3.3615,-0.34895 -2.20582,-0.9532 -1.15245,1.29785 -0.003,0.004 m -93.88279,-32.97196 -0.99304,-0.97689 -1.04044,2.02703 2.03671,-1.03183 -0.003,-0.0183 m 239.74639,97.67404 -1.3895,-1.37433 -0.1399,1.98932 1.5294,-0.61499 m -256.04213,-211.67437 -2.56772,1.52942 3.047,-0.93705 -0.47928,-0.59237 m 105.19726,169.34573 5.08371,-1.79652 -1.57034,-2.25752 -3.51337,4.05404 m 3.88603,-14.51443 4.35454,0.21543 -1.70605,-1.31187 -2.64849,1.09644 m -186.77039,-130.69013 -0.69362,0.58915 1.95056,-1.05768 -1.25694,0.46853 m 330.76863,165.62127 -2.8747,-5.82149 0.1702,3.50798 2.7045,2.31351 m -398.01901,-59.9167 -2.24243,2.53647 3.72016,-3.88388 -1.47773,1.34741 m 7.3423,298.25659 1.08352,1.32906 -1.07921,-1.34521 -0.004,0.0166 m 327.461,-286.06969 -0.7701,-2.15089 0.7626,2.14227 0.011,0.008 m -228.98247,-6.60667 -1.27739,1.46802 1.28601,-1.46802 -0.008,0 m 234.89125,102.34844 0.4932,-1.94084 -0.5095,1.91177 0.017,0.0291 m -431.92698,41.97295 -0.80134,4.08526 0.8078,-4.08742 -0.007,0.002 m 387.45849,90.91764 3.69973,-0.0313 -3.69973,0.0259 v 0.005 m 155.73263,-108.85175 1.3109,-1.25045 -1.3173,1.24185 0.01,0.008 m -431.4939,164.55502 1.41417,1.78141 -1.40986,-1.78464 -0.004,0 m 45.82773,-401.70261 -1.25154,1.02537 1.25907,-1.02752 -0.007,0.002 m 252.52043,176.29599 1.68882,1.20631 -1.68451,-1.20738 0,9.8e-4 m 16.96899,-79.43084 -1.3591,0.48793 1.357,-0.48469 0,-0.003 m -52.82967,-52.93199 -3.57798,-1.19769 3.57367,1.202 0.004,-0.004 m -381.18893,211.75057 0,0 1.02642,-0.87672 -1.02642,0.87672 m 383.1524,-199.38272 -0.22295,-2.67433 0.22188,2.67756 9.7e-4,-0.003 m -129.70786,517.46467 0.0927,1.4617 -0.0927,-1.4821 v 0.021 m -10.05003,-378.67826 1.1643,1.1923 -1.15999,-1.20308 -0.004,0.0108 m 8.85664,-18.00517 0.39959,2.24673 -0.39743,-2.25104 -0.002,0.004 m 180.77119,-68.86812 -0.6905,1.50249 0.6937,-1.50141 0,-9.8e-4 m -295.39055,-78.71028 -1.55095,0.92628 1.55526,-0.92736 -0.004,9.9e-4 m 110.62564,153.72734 1.75345,0.36081 -1.74806,-0.37482 -0.006,0.014 m 274.29741,102.82344 -0.01,0.005 1.3421,-0.4653 -1.3335,0.45992 m -432.76921,-170.54883 -0.004,-9.7e-4 -1.1083,0.27141 1.1126,-0.27033 m 144.24815,77.39195 0.11956,-1.887 -0.12387,1.88485 0.004,0.002 m 201.53587,-72.37179 0,0.002 -0.1303,1.80838 0.1324,-1.81053 m -362.51606,358.47178 0,0.01 0.48576,1.6241 -0.48576,-1.6339 m 147.14868,-312.91112 0.11201,-1.80729 -0.11956,1.81161 0.007,-0.004 m 218.24523,23.85359 1.245,1.27956 -1.2537,-1.29465 0.011,0.0151 m -193.47717,31.31545 1.61774,0.74101 -1.61451,-0.74317 -0.003,0.002 m 71.20536,-33.59666 2.26936,1.57467 -2.26936,-1.57897 v 0.004 m -125.66353,301.16947 0.59669,-1.9992 -0.62577,1.9862 0.0291,0.012 m 362.52239,-251.40029 0.01,-0.0108 -1.0178,0.9155 1.0071,-0.90473 m 118.346,-33.79804 -1.2483,-3.06748 1.2332,3.03731 0.015,0.0301 m -290.59221,-186.41064 -1.53695,-0.0646 1.54126,0.0678 -0.004,-0.003 m 107.6336,126.36793 -0.3146,-2.18859 0.2855,2.16381 0.029,0.0248 M 957.97365,603.304 l 0.002,0.0129 0.82072,-1.84932 -0.82287,1.8364 m -3.09008,-1.4551 1.35064,0.97366 -1.35064,-0.9769 v 0.003 m -77.51582,155.38599 1.71897,-0.83688 -1.71789,0.83151 -9.8e-4,0.006 m 137.5499,-25.12882 0.4232,1.34847 -0.4147,-1.35278 -0.011,0.004 m -165.88069,506.21587 0.79164,-0.8745 -0.79164,0.8745 0,0 m -212.13616,-267.74026 -0.007,0 -1.23322,-0.047 1.23969,0.0518 m -29.14302,78.32356 1.59835,0.9747 -1.59511,-0.9769 -0.003,0 m 392.78676,-465.642 0,-0.003 -1.84827,-1.48096 1.85037,1.48419 m -19.93203,-3.48858 -1.90101,0.21002 1.8967,-0.20142 0,-0.008 m -324.30308,106.25709 -1.0512,2.31137 1.05875,-2.31783 -0.007,0.007 m 494.79807,116.08635 -2.2791,-1.17078 2.2704,1.16755 0.01,0.003 m -510.61139,143.65684 1.41418,-0.10771 -1.40987,0.10445 -0.004,0.003 m 514.99608,-140.80695 -0.5784,-2.02487 0.5752,2.02057 0,0.004 m -98.6165,-101.93378 1.3624,0.47174 -1.3646,-0.47929 0,0.007 m -61.06477,28.94053 -2.12717,-1.20523 2.12717,1.20523 0,0 m 20.93257,32.80179 0,-0.003 0.4265,-1.29141 -0.4287,1.29464 m -203.46469,-75.3628 3.29903,-0.91011 -3.29148,0.89719 -0.007,0.013 m 225.04684,-97.1635 -1.5799,-0.89504 1.567,0.90365 0.013,-0.008 m -406.82622,368.87064 1.09966,-1.10074 -1.09536,1.08243 -0.004,0.0186 m -2.31136,-88.69568 -0.007,0.004 1.33447,-0.13246 -1.32694,0.12815 m 90.99306,-265.89209 -0.24235,1.01352 0.24988,-1.01029 -0.007,-0.003 m -25.63289,29.80325 1.89993,-0.79271 -1.90425,0.79055 0.004,0.002 m 32.67791,233.52653 1.58651,-1.61991 -1.59081,1.61561 0.004,0.004 m 38.56082,161.83126 1.07382,2.027 -1.0706,-2.0604 -0.003,0.033 m -62.99601,-67.56831 1.57787,1.41743 -1.57464,-1.43358 -0.003,0.0157 m 60.22259,-405.05758 0.0108,-0.007 -2.45353,1.20846 2.44277,-1.20093 m 233.37899,175.19309 1.60046,0.95319 -1.60046,-0.95319 0,0 m -64.06342,-68.14328 0.003,9.9e-4 -2.63448,-3.41213 2.63125,3.41105 m 63.43117,366.71219 2.57525,-0.1025 -2.57632,0.087 0,0.014 m 69.29363,-287.50427 -1.677,-0.45881 1.6726,0.46204 0,-0.003 m -304.87188,17.81561 2.32644,0.45882 -2.31352,-0.46205 -0.013,0.003 m -71.99913,-115.96893 -0.004,0.007 1.91718,-1.67698 -1.91288,1.6705 m 549.46509,115.69644 -0.6699,-0.46421 0.6775,0.47498 -0.01,-0.0108 m -646.23223,3.77294 -0.0721,-1.48742 0.0699,1.47449 0.002,0.013 m 420.42393,-109.77263 -1.0016,-1.70174 0.9963,1.70713 0,-0.005 m 103.7669,130.44027 1.7232,1.887 -1.7211,-1.88915 0,0.002 m -95.5296,-99.15067 -0.5375,-1.31509 0.5214,1.30107 0.016,0.014 m 136.9284,101.18092 1.1395,-0.67532 -1.1448,0.67317 0.01,0.002 m 11.8917,6.51943 -1.3872,-0.0313 1.4023,0.0516 -0.014,-0.0205 m -236.15303,-122.70442 -1.30002,-1.40987 1.29894,1.4131 9.9e-4,-0.003 m -312.42851,199.71016 2.29628,-0.45238 -2.29413,0.44806 -0.002,0.004 m 125.95648,363.64941 1.32048,0.5817 -1.32263,-0.5817 h 0.002 m -36.0588,-639.05593 0.31127,0.6204 -0.31127,-0.62255 v 0.002 m 447.94705,210.95247 1.5219,-0.24125 -1.5252,0.23694 0,0.004 m -475.47549,-157.03713 -9.8e-4,0 1.54665,-0.72701 -1.54557,0.72701 m 85.36433,386.83375 0.0183,0.01 -1.07061,-2.14 1.05229,2.1336 m -159.04691,-148.40555 1.46155,-2.06796 -1.45509,2.04964 -0.007,0.0183 m 353.57968,-202.55357 0.8864,-2.41584 -0.91017,2.42444 0.0235,-0.008 m -193.62911,370.73614 -0.0506,-0.011 -1.70498,0.154 1.75562,-0.1423 m 63.12309,69.3261 -0.56546,1.2008 0.59239,-1.1976 -0.027,0 M 700.1414,961.84625 l -1.05767,-5.00285 1.05659,4.99963 9.9e-4,0 m 556.23879,-120.64978 -0.6075,-0.0764 0.6086,0.0839 0,-0.007 m -683.73011,-1.18153 -0.0474,2.25535 0.0495,-2.25212 -0.002,-0.003 m 596.95681,-49.10519 -1.6532,-2.28768 1.6414,2.28337 0.011,0.004 m -370.4861,-259.12817 -2.97269,0.68179 2.97914,-0.68071 -0.007,-9.8e-4 m 208.06265,225.75556 1.3259,-0.83041 -1.328,0.82502 0,0.005 m -260.68773,99.29178 2.32752,0.42113 -2.33183,-0.4222 0.004,9.7e-4 m 86.67726,-170.24938 1.81269,-0.55362 -1.81269,0.55362 0,0 m -152.07297,269.18037 1.88486,1.70821 -1.88378,-1.71359 -9.8e-4,0.009 m 342.46535,-251.23662 0.7842,-1.37432 -0.7906,1.3668 0.01,0.007 m -186.09178,426.3639 -3.03516,0.1552 3.04053,-0.1541 -0.005,0 m 255.77091,-279.9412 -1.0189,1.51973 1.0222,-1.52188 0,0.002 m -54.4184,-258.62088 -0.01,-0.007 0.293,1.05013 -0.2876,-1.0426 m -323.98965,4.43209 0.98444,-0.97042 -0.98444,0.97042 0,0 m 311.52255,177.45599 0.2575,-2.66787 -0.266,2.65279 0.01,0.0151 m -3.7794,175.50327 1.2807,1.80086 -1.2752,-1.81054 0,0.009 m 207.2063,-132.04292 0.7455,-0.47176 -0.7572,0.45129 0.011,0.0205 m 12.2784,-58.04155 -0.1788,-1.4174 0.1724,1.40662 0.01,0.0108 m -530.23537,-174.18065 0.8584,0.22725 -0.85088,-0.2294 -0.007,0.002 m -55.77436,94.08096 -1.1923,1.64898 1.19338,-1.64466 -9.8e-4,-0.004 m 76.1889,-119.00083 9.7e-4,-0.002 -2.93175,1.98071 2.93067,-1.97855 m -11.16046,322.41392 -2.23705,3.17408 2.25643,-3.16439 -0.0193,-0.009 m 269.05755,148.60161 2.09058,-1.0578 -2.09166,1.0481 0,0.01 M 802.0185,727.50669 l 0.009,0.003 -1.43894,-0.90688 1.42925,0.90365 m 24.87249,402.68054 2.52246,0.3404 -2.52031,-0.3415 -0.002,0 m 441.38465,-169.94454 -0.2112,2.10026 0.2133,-2.11318 0,0.0128 M 652.75181,691.8062 l -1.05013,1.16645 1.05767,-1.17291 -0.007,0.007 m 216.26882,456.33536 0.25203,-1.2946 -0.25741,1.2978 0.005,0 m -107.02505,-96.2772 1.12553,-1.049 -1.12553,1.0426 v 0.01 m -121.4393,-173.03798 0.94566,1.09213 -0.94027,-1.09321 -0.006,9.8e-4 m 384.58817,-175.18554 0,0.002 -0.8004,1.79651 0.8036,-1.79868 m -340.3803,-54.00581 -1.36464,1.01243 1.36895,-1.01458 -0.004,0.002 m 136.98125,-25.79338 2.09164,-1.08244 -2.09379,1.06413 0.002,0.0183 m 324.89319,212.7253 1.2258,0.15726 -1.2311,-0.16587 0,0.008 m -274.2802,390.99995 1.7276,0.052 -1.72868,-0.068 9.8e-4,0.016 m 90.86598,-622.44344 -1.58116,-0.39204 1.58224,0.3996 0,-0.007 m -127.31038,218.64482 1.65437,-0.30266 -1.65222,0.28759 -0.002,0.0151 m -45.30858,-125.94679 -1.60481,2.41908 1.60912,-2.41369 -0.004,-0.006 m -101.41357,-50.66803 1.69421,-1.70712 -1.70714,1.71467 0.013,-0.007 m 487.65174,147.7109 0,0.004 0.2607,-1.72868 -0.2629,1.72438 m -3.4918,-4.77782 -0.013,0.0108 -0.9672,1.19877 0.9801,-1.20953 m -307.34287,439.19579 1.36464,-0.2444 -1.36571,0.2423 9.8e-4,0 m 1.82347,-520.17127 -0.004,0.004 2.21013,-0.36512 -2.20581,0.36082 m 306.44207,88.19593 0,0.002 -0.2004,1.28169 0.2025,-1.28384 M 966.47772,626.0538 l 0.36839,-1.46694 -0.38776,1.50033 0.0195,-0.0333 m -244.52004,-56.54229 -0.23049,1.79438 0.23373,-1.79438 -0.003,0 m 175.05415,-22.14322 1.27954,0.67855 -1.27738,-0.67963 -0.002,9.8e-4 m 284.08464,253.1419 -0.4621,-1.73838 0.4557,1.72977 0.01,0.008 M 887.25037,762.637 l -1.89885,-1.06629 1.89777,1.09213 9.8e-4,-0.0259 m -138.10892,475.12556 1.52726,0.656 -1.54234,-0.6624 0.0151,0.01 m 75.08706,-106.1753 1.92039,-1.2784 -1.92039,1.2074 v 0.071 M 691.53,932.46821 l -3.95282,-0.56654 3.96035,0.57084 -0.007,-0.004 m 337.89457,-154.0666 1.6597,-0.99305 -1.6652,0.98443 0,0.008 m 41.0198,-38.61467 -0.5655,1.31293 0.5655,-1.31293 0,0 m -65.1942,295.06978 1.1663,-1.4918 -1.175,1.4864 0.01,0 m -163.41884,-321.57292 1.30109,-0.8778 -1.30648,0.88103 0.005,-0.003 m -97.69341,296.53439 1.78037,0.3361 -1.77822,-0.3501 -0.002,0.014 M 616.4407,875.87982 l 2.65388,-2.43846 -2.65173,2.43414 -0.002,0.004 m 74.22649,-231.71923 -0.90258,1.20523 0.90689,-1.20308 -0.004,-0.002 m 214.78787,-92.74864 0.0646,1.3043 -0.0408,-1.31292 -0.0238,0.008 m 266.53628,242.70412 0.1269,-2.00871 -0.1302,2.02056 0,-0.0118 m -261.8187,-277.71818 -0.81317,0.0872 0.81963,-0.0872 h -0.007 m -303.77974,529.63235 1.35817,1.3259 -1.35817,-1.3517 v 0.025 m 440.90438,-257.22945 1.5972,-1.00598 -1.5994,1.00167 0,0.004 m -35.0636,-131.68319 -1.0491,0.60423 1.0533,-0.60423 h 0 m -191.5439,-21.85458 -1.69529,1.51974 1.69529,-1.48743 0,-0.0323 m 326.3701,100.01771 0.01,-0.002 -1.5317,0.49006 1.5252,-0.48791 m -187.04705,161.17843 -1.67697,-0.39635 1.69098,0.41144 -0.014,-0.0151 m 39.42573,-309.7628 -0.84335,-0.90041 0.83359,0.90041 0.0101,0 m -36.36793,308.87745 1.72758,-0.0248 -1.74481,-0.0937 0.0176,0.11846 M 734.83853,558.7116 l -1.59297,1.59943 1.61344,-1.60913 -0.0205,0.009 m -42.1668,84.54256 -1.244,1.57681 1.28492,-1.59514 -0.0408,0.0183 m -52.0068,295.32591 1.34525,0.22726 -1.34955,-0.24665 0.004,0.0193 m 57.95862,11.33386 1.43678,4.27917 -1.43032,-4.30285 -0.007,0.0236 m -27.91947,-284.01249 -1.13845,1.10613 1.1686,-1.12444 -0.0301,0.0183 m 409.00182,74.54098 0,0.003 -0.3652,1.54881 0.3695,-1.55204 m -303.12598,308.42512 -1.03399,-1.5757 1.02967,1.579 0.004,0 m 60.32706,-528.9247 -0.95426,0.17449 0.95426,-0.17449 0,0 m -19.66598,117.13215 2.27474,0.52237 -2.28228,-0.52775 0.007,0.006 m -141.71059,21.02955 -0.58378,1.15675 0.59669,-1.16429 -0.0129,0.007 m 47.98289,380.59222 0.90796,1.6836 -0.90581,-1.6964 -0.002,0.012 m -104.0524,-165.48277 1.05229,-0.57301 -1.09968,0.59348 0.0474,-0.0205 m 101.24555,-269.09743 1.3571,0.0442 -1.33448,-0.0484 -0.0225,0.004 m 100.05541,41.89861 -1.66404,-0.28864 1.64574,0.28864 0.0183,0 m -151.52905,19.33104 0,0.002 1.84177,-1.81916 -1.84177,1.81701 m 44.81743,222.58575 1.77284,-1.05982 -1.76529,1.03936 -0.007,0.0205 m 250.83056,-281.19063 -0.38667,0.87026 0.38775,-0.86163 0,-0.008 m -225.61018,-50.84572 -0.18526,-0.46314 0.18095,0.46637 0.004,-0.003 m 130.79463,590.19403 2.32644,-0.1939 -2.32644,0.1896 v 0 m 152.5415,-223.37412 1.7663,0.0894 -1.7621,-0.0905 0,9.7e-4 m 243.4237,52.37191 0.6419,-2.82078 -0.6397,2.81217 0,0.009 m -675.43786,-202.66557 -0.26495,1.83315 0.27034,-1.84069 -0.006,0.007 m 315.13516,-224.86699 1.22785,0.68826 -1.23002,-0.6904 0.002,0.002 m -32.03278,156.77433 -0.0516,-2.20582 0.0463,2.21012 0.006,-0.004 m -84.71596,-36.51871 -0.49222,1.40665 0.50943,-1.38834 -0.0172,-0.0183 m 373.07231,113.10395 -0.5795,1.12983 0.5816,-1.12875 0,-9.9e-4 m -150.2807,-104.62104 0.2649,1.49064 -0.2627,-1.49279 0,0.002 m -327.44712,284.72771 -0.29405,-2.25323 0.28543,2.28769 0.008,-0.0343 m 376.57164,-146.54125 1.3376,-0.0948 -1.3397,0.0895 0,0.005 m 88.3101,-81.24136 0,-9.9e-4 -0.8466,1.0049 0.8519,-1.00382 M 772.39375,539.4981 l -1.08783,0.56653 1.08998,-0.56653 -0.002,0 m -130.23778,342.75198 0.52453,1.28385 -0.51915,-1.28708 -0.005,0.003 m 199.06284,-252.3524 1.89454,-1.76315 -1.89346,1.75561 -9.9e-4,0.007 m -93.61566,383.59189 1.99901,0.1152 -1.99794,-0.126 -9.8e-4,0.01 m 213.02365,-393.25202 0.003,0.004 -0.35003,-1.4217 0.3468,1.4174 m -348.94399,433.08482 1.64683,0.2359 -1.64683,-0.2391 v 0 m 655.33441,-231.26044 -0.036,-1.20631 0.035,1.20307 0,0.003 m -613.96236,-130.46289 -0.54607,1.2677 0.54822,-1.26985 -0.002,0.002 m 422.89361,43.36665 -1.8181,-1.02752 1.8052,1.02859 0.013,-9.7e-4 m -66.4987,-77.71616 0.3458,-2.60756 -0.3533,2.60756 0.011,0 m -189.26366,37.69485 -0.86057,1.95917 0.87134,-1.93439 -0.0108,-0.0248 m 184.16379,335.1524 0.7723,1.1913 -0.7734,-1.1968 0,0.01 m -348.5432,63.2514 0.95749,-0.1498 -0.95749,0.1412 v 0.01 M 632.25227,957.28906 h 0.002 l 1.01782,-1.22248 -1.01998,1.22248 m 125.1336,-411.33363 0.72594,-0.48791 -0.76255,0.50084 0.0366,-0.013 m -70.5268,384.3781 -0.003,-0.002 0.86702,1.55312 -0.86379,-1.55097 m 103.42444,-271.79652 -0.002,0.002 -0.82934,1.29786 0.83149,-1.30001 m 15.05186,18.98853 -0.91227,-1.42065 0.90473,1.42603 0.007,-0.005 m 5.60716,-27.66638 -2.08735,-1.37325 2.04643,1.3765 0.0408,-0.003 m -207.79777,393.84658 1.1406,1.5843 -1.1406,-1.6263 0,0.042 m 89.53255,-111.9785 1.27416,0.90903 -1.27093,-0.91119 -0.003,0.002 m 264.3756,-331.72076 -0.005,-0.0161 -1.08028,-1.06952 1.08566,1.08567 m -297.35723,77.72047 0.22833,1.20307 -0.22511,-1.20524 -0.003,0.002 m -83.70676,172.32272 0.33713,-1.71682 -0.34251,1.70929 0.006,0.007 m 256.32998,-329.12398 -1.0092,0.22727 1.01458,-0.22727 h -0.005 m -29.31966,311.21036 3.15148,-1.6382 -3.13747,1.62528 -0.014,0.013 m 101.36295,-103.40935 1.96347,-0.70116 -1.95054,0.68608 -0.013,0.0151 m -42.97997,410.97175 0.52775,-1.1718 -0.52775,1.1599 v 0.012 m -24.79924,-302.64563 -0.002,-0.007 -1.06736,1.05767 1.06952,-1.05121 m -96.08106,20.21207 1.49712,0.19601 -1.49281,-0.20571 -0.004,0.009 m -159.81406,-13.55268 0.3188,1.26124 -0.31235,-1.27523 -0.007,0.014 m 195.48914,-305.22407 -2.81972,1.01243 2.8165,-1.01028 0.003,-0.002 m 340.36718,250.63341 1.3518,0.65808 -1.3539,-0.671 0,0.0129 m -289.64213,343.4499 1.03613,-0.9348 -1.05012,0.9263 0.014,0.01 m 192.82332,-366.44191 1.4616,0.49007 -1.4982,-0.55684 0.036,0.0667 m 42.5146,49.47032 1.144,0.86274 -1.144,-0.8692 v 0.007 m 0.011,-113.52402 -2.7131,-1.20738 2.71,1.2063 0,9.8e-4 m -190.50226,-8.54536 0.41572,1.30108 -0.41034,-1.3054 -0.005,0.004 m -112.73561,325.14212 1.27739,1.2343 -1.27524,-1.2439 -0.002,0.01 m 81.96084,-361.01453 0.004,0.0108 1.00704,-1.01782 -1.01136,1.00706 m -60.65986,-97.11396 -0.80886,0.8164 0.81101,-0.80456 -0.002,-0.0118 m -72.45796,424.26368 -1.73837,-1.14058 1.73406,1.15887 0.004,-0.0186 m 499.4201,-181.87036 0.2919,-1.12767 -0.293,1.1309 0,-0.003 m -24.9878,315.21177 -0.012,0.6936 0.038,-0.7636 -0.024,0.07 m -40.1463,-260.54134 -0.5298,1.41526 0.5363,-1.40987 -0.01,-0.005 m -260.9505,-96.17478 0.91766,-1.21169 -0.91549,1.19124 -0.002,0.0205 m 183.89243,-17.0746 1.3204,0.009 -1.3193,-0.0172 0,0.007 m -348.985,-132.37633 -0.0301,-0.0193 -0.75608,-0.46852 0.78624,0.48791 m 212.89008,45.68878 -0.29186,-1.30648 0.28971,1.31078 0.002,-0.004 m 182.14341,152.12791 0.7733,-1.26662 -0.7927,1.23431 0.02,0.0323 m -284.23347,321.36724 -0.89718,1.1179 0.90473,-1.1105 -0.007,-0.01 m -16.76439,-401.40006 1.36462,2.22734 -1.36678,-2.23165 0.002,0.004 m 1.29462,-89.57455 2.08949,-1.41849 -2.10781,1.38294 0.0183,0.0355 m 15.83381,489.51617 1.45403,0.064 -1.44971,-0.07 -0.004,0.01 m -63.27497,-374.57369 -0.005,0.008 2.53108,-1.22031 -2.5257,1.21169 m 54.37093,-67.99893 -2.46216,0.44482 2.46969,-0.41037 -0.007,-0.0345 m 10.69948,-52.71765 -0.58376,-1.38725 0.57084,1.41417 0.013,-0.0269 m -151.79508,22.10983 -0.0183,9.8e-4 -0.26603,1.21385 0.28434,-1.21493 m 139.40893,-30.85231 -1.16214,-0.46959 1.16644,0.47282 -0.004,-0.003 m -153.12095,341.7471 1.50357,1.16209 -1.49711,-1.18685 -0.007,0.0245 M 905.044,541.19871 l -2.0324,-0.0527 2.03025,0.0754 0.002,-0.0225 m 156.62265,197.31154 1.0749,1.03936 -1.0686,-1.03828 -0.01,-9.8e-4 m 99.8119,44.81743 -0.2069,1.98718 0.2134,-1.97855 -0.01,-0.008 m -94.8608,-40.41982 0.6699,1.79869 -0.6623,-1.79761 -0.01,-9.6e-4 m -197.32128,-55.5234 -1.66082,0.89504 1.66188,-0.89181 -9.6e-4,-0.003 m -11.59454,-31.62671 -1.34416,-0.80349 1.34093,0.81964 0.003,-0.0161 m 99.71505,242.17205 2.66572,0.18094 -2.66787,-0.19172 0.002,0.0108 M 817.9533,639.31314 l -2.00979,-0.71949 1.97641,0.71949 0.0333,0 m -44.33814,21.32357 0.4416,0.98551 -0.41791,-1.00165 -0.0236,0.0161 m 221.63577,-79.33605 1.02861,-0.74316 -1.05013,0.7367 0.0215,0.007 m 63.06928,180.74639 0.8423,-1.21491 -0.8639,1.18368 0.022,0.0313 m 111.7371,48.25433 -0.9552,-1.10074 0.9498,1.10828 0.01,-0.007 M 831.27504,647.4374 l 1.82344,-1.38186 -1.84069,1.32155 0.0173,0.0603 m -122.24928,322.08113 0.009,0.0206 1.28277,1.05122 -1.29248,-1.07167 m 187.38215,-236.46907 1.90962,2.90915 -1.90962,-2.91883 0,0.009 m -79.12925,-94.67765 -0.69579,-0.86918 0.68501,0.86163 0.0108,0.007 m -48.95657,117.96364 -1.63282,0.90042 1.62205,-0.87565 0.0108,-0.0248 m 22.27786,-180.42435 0.41465,0.59347 -0.39311,-0.59131 -0.0215,-0.002 m 172.85265,27.08261 -1.88487,-0.84117 1.88487,0.84441 v -0.003 m -93.88711,109.34504 1.89884,0.10662 -1.88593,-0.10878 -0.013,0.002 m -186.96641,-57.49334 -1.23431,0.0376 1.23108,-0.0313 0.003,-0.007 m 136.49225,34.61554 -0.90473,1.61883 0.91226,-1.60481 -0.007,-0.014 m 212.13623,36.80952 0,-0.004 -1.0265,-1.20415 1.0286,1.20845 m -348.90632,201.08017 -0.45884,1.32478 0.46314,-1.32694 -0.004,0.002 m 141.02019,-280.77165 1.18369,-0.91011 -1.20738,0.88533 0.0236,0.0247 m 64.53727,-7.61264 -1.22136,-1.79653 1.17937,1.81591 0.0421,-0.0193 m -18.56953,55.70432 1.03505,-0.9758 -1.03721,0.97258 0.002,0.003 m 147.26053,41.6649 -2.2121,-3.50475 2.2025,3.49074 0.011,0.014 m -117.74391,-102.2203 -1.2343,-1.15675 1.2343,1.15675 0,0 m -0.97688,0.65378 -0.96827,-0.97258 0.91334,0.96289 0.0548,0.009" />
    </g>
    <path
       style="fill:url(#path3517_1_)"
       inkscape:connector-curvature="0"
       id="path3517"
       d="M 824.5,24.000004 C 824.5,189.68572 690.18486,324 524.5,324 358.81429,324 224.5,189.68572 224.5,24.000004 224.5,-141.68571 358.81429,-276 524.5,-276 c 165.68486,0 300,134.31429 300,300.000004 l 0,0 z" />
  </g>
</svg>
